<svg width="842" height="596" viewBox="0 0 842 596" fill="none" xmlns="http://www.w3.org/2000/svg">
<g clip-path="url(#clip0_1654_1520)">
<path d="M841.9 0H0V595.3H841.9V0Z" fill="white"/>
<path d="M826.883 580.294L826.883 14.9941L14.9828 14.9941L14.9828 580.294L826.883 580.294Z" fill="#F4F4F4"/>
<path d="M826.883 580.294L826.883 14.9941L14.9828 14.9941L14.9828 580.294L826.883 580.294Z" stroke="#665BFF" stroke-miterlimit="10"/>
<path d="M841.9 464.301H0V595.201H841.9V464.301Z" fill="#665BFF"/>
<path d="M841.9 595.299H0V536.299L841.9 430.699V595.299Z" fill="url(#paint0_linear_1654_1520)"/>
<path d="M523.697 262.698V257.198L520.797 248.398H523.197L524.997 254.098L526.697 248.398H529.097L526.197 257.198V262.698H523.697Z" fill="black"/>
<path d="M535.897 262.899C534.897 262.899 534.097 262.699 533.497 262.299C532.897 261.899 532.497 261.399 532.197 260.699C531.897 259.999 531.797 259.199 531.797 258.199V252.899C531.797 251.899 531.897 251.099 532.197 250.399C532.497 249.699 532.897 249.199 533.497 248.799C534.097 248.399 534.897 248.299 535.897 248.299C536.897 248.299 537.797 248.499 538.297 248.799C538.897 249.199 539.297 249.699 539.597 250.399C539.897 251.099 539.997 251.899 539.997 252.899V258.299C539.997 259.299 539.897 260.099 539.597 260.799C539.297 261.499 538.897 261.999 538.297 262.399C537.697 262.699 536.897 262.899 535.897 262.899ZM535.897 260.999C536.297 260.999 536.697 260.899 536.897 260.699C537.097 260.499 537.197 260.299 537.297 259.899C537.397 259.599 537.397 259.199 537.397 258.799V252.199C537.397 251.799 537.397 251.399 537.297 251.099C537.197 250.799 537.097 250.499 536.897 250.299C536.697 250.099 536.397 249.999 535.897 249.999C535.497 249.999 535.197 250.099 534.997 250.299C534.797 250.499 534.597 250.699 534.597 251.099C534.497 251.399 534.497 251.799 534.497 252.199V258.799C534.497 259.199 534.497 259.499 534.597 259.899C534.697 260.199 534.797 260.499 534.997 260.699C535.097 260.899 535.397 260.999 535.897 260.999Z" fill="black"/>
<path d="M547.594 262.899C546.494 262.899 545.694 262.699 545.094 262.299C544.494 261.899 544.094 261.399 543.894 260.599C543.694 259.799 543.594 258.999 543.594 257.999V248.299H546.094V258.299C546.094 258.699 546.094 259.199 546.194 259.599C546.294 259.999 546.394 260.299 546.594 260.599C546.794 260.799 547.094 260.999 547.594 260.999C548.094 260.999 548.394 260.899 548.594 260.599C548.794 260.399 548.894 259.999 548.994 259.599C549.094 259.199 549.094 258.799 549.094 258.299V248.299H551.594V257.999C551.594 258.999 551.494 259.899 551.294 260.599C551.094 261.299 550.694 261.899 550.094 262.299C549.494 262.699 548.694 262.899 547.594 262.899Z" fill="black"/>
<path d="M555.398 262.698V248.398H558.798C559.798 248.398 560.598 248.498 561.198 248.698C561.898 248.898 562.398 249.298 562.698 249.898C562.998 250.498 563.198 251.198 563.198 252.198C563.198 252.798 563.098 253.298 562.998 253.798C562.898 254.298 562.698 254.698 562.498 254.998C562.198 255.298 561.898 255.598 561.398 255.798L563.398 262.798H560.998L559.298 256.298H557.998V262.798H555.398V262.698ZM557.998 254.498H558.798C559.298 254.498 559.698 254.398 559.998 254.298C560.298 254.198 560.498 253.898 560.598 253.598C560.698 253.298 560.798 252.898 560.798 252.398C560.798 251.698 560.698 251.098 560.398 250.798C560.098 250.398 559.598 250.298 558.898 250.298H557.898V254.498H557.998Z" fill="black"/>
<path d="M573.094 262.698V248.398H577.294C578.194 248.398 578.894 248.598 579.394 248.898C579.894 249.198 580.294 249.698 580.594 250.298C580.894 250.898 580.994 251.598 580.994 252.498C580.994 253.398 580.794 254.198 580.494 254.798C580.194 255.398 579.694 255.798 579.194 255.998C578.594 256.298 577.994 256.398 577.194 256.398H575.794V262.798H573.094V262.698ZM575.694 254.498H576.694C577.194 254.498 577.494 254.398 577.794 254.298C578.094 254.198 578.194 253.898 578.294 253.598C578.394 253.298 578.494 252.898 578.494 252.398C578.494 251.898 578.494 251.498 578.394 251.098C578.294 250.698 578.194 250.498 577.894 250.398C577.594 250.198 577.194 250.198 576.694 250.198H575.694V254.498Z" fill="black"/>
<path d="M584.094 262.698V248.398H587.494C588.494 248.398 589.294 248.498 589.894 248.698C590.594 248.898 591.094 249.298 591.394 249.898C591.694 250.498 591.894 251.198 591.894 252.198C591.894 252.798 591.794 253.298 591.694 253.798C591.594 254.298 591.394 254.698 591.194 254.998C590.894 255.298 590.594 255.598 590.094 255.798L592.094 262.798H589.494L587.794 256.298H586.594V262.798H584.094V262.698ZM586.694 254.498H587.494C587.994 254.498 588.394 254.398 588.694 254.298C588.994 254.198 589.194 253.898 589.294 253.598C589.394 253.298 589.494 252.898 589.494 252.398C589.494 251.698 589.394 251.098 589.094 250.798C588.794 250.398 588.294 250.298 587.594 250.298H586.594V254.498H586.694Z" fill="black"/>
<path d="M599.6 262.899C598.6 262.899 597.8 262.699 597.2 262.299C596.6 261.899 596.2 261.399 595.9 260.699C595.6 259.999 595.5 259.199 595.5 258.199V252.899C595.5 251.899 595.6 251.099 595.9 250.399C596.2 249.699 596.6 249.199 597.2 248.799C597.8 248.399 598.6 248.299 599.6 248.299C600.6 248.299 601.5 248.499 602 248.799C602.6 249.199 603 249.699 603.3 250.399C603.6 251.099 603.7 251.899 603.7 252.899V258.299C603.7 259.299 603.6 260.099 603.3 260.799C603 261.499 602.6 261.999 602 262.399C601.5 262.699 600.6 262.899 599.6 262.899ZM599.6 260.999C600 260.999 600.4 260.899 600.6 260.699C600.8 260.499 600.9 260.299 601 259.899C601.1 259.599 601.1 259.199 601.1 258.799V252.199C601.1 251.799 601.1 251.399 601 251.099C600.9 250.799 600.8 250.499 600.6 250.299C600.4 250.099 600.1 249.999 599.6 249.999C599.2 249.999 598.9 250.099 598.7 250.299C598.5 250.499 598.3 250.699 598.3 251.099C598.2 251.399 598.2 251.799 598.2 252.199V258.799C598.2 259.199 598.2 259.499 598.3 259.899C598.4 260.199 598.5 260.499 598.7 260.699C598.9 260.899 599.2 260.999 599.6 260.999Z" fill="black"/>
<path d="M607.398 262.698V248.398H613.298V250.198H609.998V254.398H612.698V256.198H609.998V262.698H607.398Z" fill="black"/>
<path d="M616.5 262.698V248.398H619.1V262.698H616.5Z" fill="black"/>
<path d="M624.495 262.698V250.298H622.195V248.398H629.295V250.298H627.095V262.698H624.495Z" fill="black"/>
<path d="M642.094 262.899C641.194 262.899 640.494 262.699 639.894 262.399C639.294 262.099 638.894 261.599 638.594 260.899C638.294 260.299 638.094 259.499 638.094 258.499L640.294 258.099C640.294 258.699 640.394 259.099 640.494 259.599C640.594 259.999 640.794 260.399 640.994 260.599C641.194 260.799 641.494 260.899 641.894 260.899C642.294 260.899 642.594 260.799 642.794 260.499C642.994 260.199 643.094 259.899 643.094 259.499C643.094 258.899 642.994 258.399 642.694 257.999C642.394 257.599 641.994 257.199 641.594 256.799L639.794 255.199C639.294 254.799 638.894 254.299 638.594 253.699C638.294 253.199 638.094 252.499 638.094 251.699C638.094 250.599 638.394 249.699 639.094 249.099C639.794 248.499 640.694 248.199 641.794 248.199C642.494 248.199 642.994 248.299 643.494 248.499C643.894 248.699 644.294 248.999 644.594 249.399C644.894 249.799 645.094 250.199 645.194 250.599C645.294 250.999 645.394 251.599 645.394 252.099L643.194 252.499C643.194 252.099 643.094 251.699 642.994 251.299C642.894 250.899 642.794 250.699 642.594 250.499C642.394 250.299 642.094 250.199 641.694 250.199C641.294 250.199 640.994 250.299 640.794 250.599C640.594 250.899 640.494 251.199 640.494 251.499C640.494 251.999 640.594 252.399 640.794 252.699C640.994 252.999 641.294 253.299 641.694 253.699L643.494 255.299C644.094 255.799 644.594 256.399 644.994 256.999C645.394 257.699 645.594 258.499 645.594 259.399C645.594 260.099 645.494 260.699 645.094 261.199C644.794 261.699 644.394 262.099 643.794 262.399C643.394 262.799 642.794 262.899 642.094 262.899Z" fill="black"/>
<path d="M648.797 262.698V248.398H651.397V254.398H654.297V248.398H656.897V262.698H654.297V256.198H651.397V262.698H648.797Z" fill="black"/>
<path d="M660.195 262.698L663.095 248.398H665.895L668.795 262.698H666.395L665.795 259.398H663.295L662.695 262.698H660.195ZM663.495 257.798H665.395L664.395 251.798L663.495 257.798Z" fill="black"/>
<path d="M671.797 262.698V248.398H675.197C676.197 248.398 676.997 248.498 677.597 248.698C678.297 248.898 678.797 249.298 679.097 249.898C679.397 250.498 679.597 251.198 679.597 252.198C679.597 252.798 679.497 253.298 679.397 253.798C679.297 254.298 679.097 254.698 678.897 254.998C678.597 255.298 678.297 255.598 677.797 255.798L679.797 262.798H677.197L675.497 256.298H674.297V262.798H671.797V262.698ZM674.397 254.498H675.197C675.697 254.498 676.097 254.398 676.397 254.298C676.697 254.198 676.897 253.898 676.997 253.598C677.097 253.298 677.197 252.898 677.197 252.398C677.197 251.698 677.097 251.098 676.797 250.798C676.497 250.398 675.997 250.298 675.297 250.298H674.297V254.498H674.397Z" fill="black"/>
<path d="M683.5 262.698V248.398H689.5V250.198H686.1V254.298H688.8V256.098H686.1V260.798H689.5V262.598H683.5V262.698Z" fill="black"/>
<path d="M698.898 262.698V248.398H701.498V262.698H698.898Z" fill="black"/>
<path d="M709.094 262.899C708.194 262.899 707.494 262.699 706.894 262.399C706.294 262.099 705.894 261.599 705.594 260.899C705.294 260.299 705.094 259.499 705.094 258.499L707.294 258.099C707.294 258.699 707.394 259.099 707.494 259.599C707.594 259.999 707.794 260.399 707.994 260.599C708.194 260.799 708.494 260.899 708.894 260.899C709.294 260.899 709.594 260.799 709.794 260.499C709.994 260.199 710.094 259.899 710.094 259.499C710.094 258.899 709.994 258.399 709.694 257.999C709.394 257.599 708.994 257.199 708.594 256.799L706.794 255.199C706.294 254.799 705.894 254.299 705.594 253.699C705.294 253.199 705.094 252.499 705.094 251.699C705.094 250.599 705.394 249.699 706.094 249.099C706.794 248.499 707.694 248.199 708.794 248.199C709.494 248.199 709.994 248.299 710.494 248.499C710.894 248.699 711.294 248.999 711.594 249.399C711.894 249.799 712.094 250.199 712.194 250.599C712.294 250.999 712.394 251.599 712.394 252.099L710.194 252.499C710.194 252.099 710.094 251.699 709.994 251.299C709.894 250.899 709.794 250.699 709.594 250.499C709.394 250.299 709.094 250.199 708.694 250.199C708.294 250.199 707.994 250.299 707.794 250.599C707.594 250.899 707.494 251.199 707.494 251.499C707.494 251.999 707.594 252.399 707.794 252.699C707.994 252.999 708.294 253.299 708.694 253.699L710.494 255.299C711.094 255.799 711.594 256.399 711.994 256.999C712.394 257.699 712.594 258.499 712.594 259.399C712.594 260.099 712.494 260.699 712.094 261.199C711.794 261.699 711.394 262.099 710.794 262.399C710.394 262.799 709.794 262.899 709.094 262.899Z" fill="black"/>
<path d="M137.297 262.3V249.1H140.597C141.397 249.1 141.997 249.2 142.497 249.5C142.997 249.8 143.297 250.2 143.497 250.7C143.697 251.2 143.797 251.9 143.797 252.7C143.797 253.4 143.697 254 143.397 254.5C143.097 255 142.797 255.4 142.297 255.7C141.797 256 141.197 256.1 140.497 256.1H139.097V262.2H137.297V262.3ZM139.097 254.8H139.897C140.397 254.8 140.797 254.7 141.197 254.6C141.497 254.5 141.697 254.3 141.897 254C142.097 253.7 142.097 253.3 142.097 252.7C142.097 252.1 142.097 251.6 141.997 251.3C141.897 251 141.697 250.7 141.397 250.6C141.097 250.5 140.697 250.4 139.997 250.4H139.097V254.8Z" fill="black"/>
<path d="M146.695 262.3V249.1H149.295C150.195 249.1 150.895 249.2 151.495 249.4C152.095 249.6 152.495 250 152.795 250.5C153.095 251 153.195 251.7 153.195 252.5C153.195 253 153.095 253.5 152.995 253.9C152.895 254.3 152.695 254.7 152.495 255C152.295 255.3 151.895 255.5 151.595 255.6L153.495 262.2H151.695L149.995 256H148.595V262.2H146.695V262.3ZM148.495 254.8H149.195C149.695 254.8 150.095 254.7 150.495 254.6C150.795 254.5 151.095 254.2 151.195 253.9C151.395 253.6 151.395 253.1 151.395 252.6C151.395 251.8 151.295 251.3 150.995 250.9C150.695 250.6 150.195 250.4 149.295 250.4H148.495V254.8V254.8Z" fill="black"/>
<path d="M160.094 262.4C159.194 262.4 158.494 262.2 157.994 261.9C157.494 261.6 157.094 261.1 156.894 260.4C156.694 259.7 156.594 259 156.594 258.1V253.1C156.594 252.2 156.694 251.5 156.894 250.9C157.094 250.3 157.494 249.8 157.994 249.5C158.494 249.2 159.194 249 160.094 249C160.994 249 161.694 249.2 162.194 249.5C162.694 249.8 163.094 250.3 163.294 250.9C163.494 251.5 163.594 252.3 163.594 253.1V258.1C163.594 259 163.494 259.7 163.294 260.3C163.094 260.9 162.694 261.4 162.194 261.8C161.694 262.3 160.994 262.4 160.094 262.4ZM160.094 261C160.594 261 160.994 260.9 161.194 260.7C161.394 260.5 161.594 260.2 161.694 259.9C161.794 259.5 161.794 259.1 161.794 258.6V252.8C161.794 252.3 161.794 251.9 161.694 251.5C161.594 251.1 161.394 250.9 161.194 250.7C160.894 250.5 160.594 250.4 160.094 250.4C159.594 250.4 159.194 250.5 158.994 250.7C158.694 250.9 158.594 251.2 158.494 251.5C158.394 251.8 158.394 252.3 158.394 252.8V258.6C158.394 259.1 158.394 259.5 158.494 259.9C158.594 260.3 158.794 260.5 158.994 260.7C159.294 260.9 159.594 261 160.094 261Z" fill="black"/>
<path d="M170.594 262.4C169.594 262.4 168.894 262.2 168.394 261.8C167.894 261.4 167.494 260.9 167.394 260.2C167.294 259.5 167.094 258.7 167.094 257.8V249.1H168.894V257.9C168.894 258.5 168.894 259 168.994 259.4C169.094 259.9 169.194 260.2 169.494 260.5C169.794 260.8 170.094 260.9 170.594 260.9C171.094 260.9 171.494 260.8 171.794 260.5C171.994 260.2 172.194 259.9 172.294 259.4C172.394 258.9 172.394 258.4 172.394 257.9V249.1H174.094V257.8C174.094 258.7 173.994 259.5 173.794 260.2C173.594 260.9 173.294 261.4 172.794 261.8C172.294 262.2 171.494 262.4 170.594 262.4Z" fill="black"/>
<path d="M177.594 262.3V249.1H180.494C181.494 249.1 182.194 249.2 182.794 249.5C183.394 249.8 183.794 250.2 183.994 250.8C184.194 251.4 184.394 252.1 184.394 253V257.8C184.394 258.7 184.294 259.5 183.994 260.2C183.794 260.8 183.394 261.3 182.794 261.7C182.294 262 181.494 262.2 180.594 262.2H177.594V262.3ZM179.394 261H180.394C181.094 261 181.494 260.9 181.794 260.6C182.094 260.3 182.294 260 182.294 259.5C182.294 259 182.394 258.4 182.394 257.7V253.4C182.394 252.7 182.394 252.2 182.294 251.7C182.194 251.3 181.994 251 181.694 250.8C181.394 250.6 180.894 250.5 180.294 250.5H179.294V261H179.394Z" fill="black"/>
<path d="M187.797 262.3V249.1H189.597V261H192.997V262.3H187.797Z" fill="black"/>
<path d="M197.394 262.299V257.699L194.594 249.199H196.294L198.294 255.599L200.294 249.199H201.994L199.194 257.699V262.299H197.394Z" fill="black"/>
<path d="M210.195 262.3V249.1H213.495C214.295 249.1 214.895 249.2 215.395 249.5C215.895 249.8 216.195 250.2 216.395 250.7C216.595 251.2 216.695 251.9 216.695 252.7C216.695 253.4 216.595 254 216.295 254.5C215.995 255 215.695 255.4 215.195 255.7C214.695 256 214.095 256.1 213.395 256.1H211.995V262.2H210.195V262.3ZM211.995 254.8H212.795C213.295 254.8 213.695 254.7 214.095 254.6C214.395 254.5 214.595 254.3 214.795 254C214.995 253.7 214.995 253.3 214.995 252.7C214.995 252.1 214.995 251.6 214.895 251.3C214.795 251 214.595 250.7 214.295 250.6C213.995 250.5 213.595 250.4 212.895 250.4H211.995V254.8Z" fill="black"/>
<path d="M219.594 262.3V249.1H222.194C223.094 249.1 223.794 249.2 224.394 249.4C224.994 249.6 225.394 250 225.694 250.5C225.994 251 226.094 251.7 226.094 252.5C226.094 253 225.994 253.5 225.894 253.9C225.794 254.3 225.594 254.7 225.394 255C225.194 255.3 224.794 255.5 224.494 255.6L226.394 262.2H224.594L222.894 256H221.494V262.2H219.594V262.3ZM221.494 254.8H222.194C222.694 254.8 223.094 254.7 223.494 254.6C223.794 254.5 224.094 254.2 224.194 253.9C224.394 253.6 224.394 253.1 224.394 252.6C224.394 251.8 224.294 251.3 223.994 250.9C223.694 250.6 223.194 250.4 222.294 250.4H221.494V254.8V254.8Z" fill="black"/>
<path d="M229.695 262.3V249.1H234.795V250.5H231.495V254.9H234.095V256.2H231.495V261H234.795V262.3H229.695V262.3Z" fill="black"/>
<path d="M241 262.4C240.2 262.4 239.6 262.2 239.1 261.9C238.6 261.6 238.2 261.1 238 260.6C237.7 260 237.6 259.4 237.5 258.6L239.1 258.2C239.1 258.7 239.2 259.1 239.3 259.5C239.4 259.9 239.6 260.3 239.9 260.6C240.2 260.9 240.5 261 241 261C241.5 261 241.8 260.9 242.1 260.6C242.3 260.3 242.5 260 242.5 259.5C242.5 258.9 242.4 258.4 242.1 258.1C241.8 257.7 241.5 257.4 241.1 257L238.9 255C238.5 254.6 238.1 254.2 237.9 253.8C237.7 253.4 237.6 252.8 237.6 252.1C237.6 251.1 237.9 250.4 238.4 249.9C239 249.4 239.7 249.1 240.7 249.1C241.2 249.1 241.7 249.2 242.1 249.3C242.5 249.4 242.8 249.6 243.1 249.9C243.4 250.2 243.6 250.5 243.7 251C243.9 251.4 244 251.9 244 252.5L242.4 252.9C242.4 252.5 242.3 252.1 242.2 251.7C242.1 251.3 241.9 251 241.7 250.8C241.5 250.6 241.1 250.5 240.7 250.5C240.3 250.5 239.9 250.6 239.6 250.9C239.3 251.1 239.2 251.5 239.2 252C239.2 252.4 239.3 252.7 239.4 253C239.5 253.3 239.8 253.5 240.1 253.8L242.3 255.8C242.8 256.2 243.2 256.8 243.6 257.4C244 258 244.2 258.7 244.2 259.5C244.2 260.2 244.1 260.7 243.8 261.2C243.5 261.7 243.2 262 242.7 262.3C242.2 262.6 241.7 262.4 241 262.4Z" fill="black"/>
<path d="M247.297 262.3V249.1H252.397V250.5H249.097V254.9H251.697V256.2H249.097V261H252.397V262.3H247.297V262.3Z" fill="black"/>
<path d="M255.5 262.3V249.1H256.8L260.5 257.8V249.1H262V262.3H260.8L257 253.3V262.3H255.5Z" fill="black"/>
<path d="M267.098 262.3V250.5H264.898V249.1H271.098V250.5H268.998V262.3H267.098Z" fill="black"/>
<path d="M274 262.3V249.1H279.1V250.5H275.8V254.9H278.4V256.2H275.8V261H279.1V262.3H274V262.3Z" fill="black"/>
<path d="M282.297 262.3V249.1H285.197C286.197 249.1 286.897 249.2 287.497 249.5C288.097 249.8 288.497 250.2 288.697 250.8C288.897 251.4 289.097 252.1 289.097 253V257.8C289.097 258.7 288.997 259.5 288.697 260.2C288.497 260.8 288.097 261.3 287.497 261.7C286.997 262 286.197 262.2 285.297 262.2H282.297V262.3ZM284.097 261H285.097C285.797 261 286.197 260.9 286.497 260.6C286.797 260.3 286.997 260 286.997 259.5C286.997 259 287.097 258.4 287.097 257.7V253.4C287.097 252.7 287.097 252.2 286.997 251.7C286.897 251.3 286.697 251 286.397 250.8C286.097 250.6 285.597 250.5 284.997 250.5H283.997V261H284.097Z" fill="black"/>
<path d="M299.3 262.3V250.5H297V249.1H303.2V250.5H301V262.3H299.3Z" fill="black"/>
<path d="M309.5 262.4C308.6 262.4 307.9 262.2 307.4 261.9C306.9 261.6 306.5 261.1 306.3 260.4C306.1 259.7 306 259 306 258.1V253.1C306 252.2 306.1 251.5 306.3 250.9C306.5 250.3 306.9 249.8 307.4 249.5C307.9 249.2 308.6 249 309.5 249C310.4 249 311.1 249.2 311.6 249.5C312.1 249.8 312.5 250.3 312.7 250.9C312.9 251.5 313 252.3 313 253.1V258.1C313 259 312.9 259.7 312.7 260.3C312.5 260.9 312.1 261.4 311.6 261.8C311.1 262.3 310.4 262.4 309.5 262.4ZM309.5 261C310 261 310.4 260.9 310.6 260.7C310.8 260.5 311 260.2 311.1 259.9C311.2 259.5 311.2 259.1 311.2 258.6V252.8C311.2 252.3 311.2 251.9 311.1 251.5C311 251.1 310.8 250.9 310.6 250.7C310.3 250.5 310 250.4 309.5 250.4C309 250.4 308.6 250.5 308.4 250.7C308.1 250.9 308 251.2 307.9 251.5C307.8 251.8 307.8 252.3 307.8 252.8V258.6C307.8 259.1 307.8 259.5 307.9 259.9C308 260.3 308.2 260.5 308.4 260.7C308.7 260.9 309 261 309.5 261Z" fill="black"/>
<path d="M638.803 548.801H635.803L635.303 550.301H633.703L636.503 542.801H638.203L641.003 550.301H639.403L638.803 548.801ZM638.403 547.701L637.303 544.501L636.203 547.701H638.403Z" fill="#665BFF"/>
<path d="M648.705 547.101C649.005 547.401 649.105 547.801 649.105 548.301C649.105 548.901 648.905 549.401 648.505 549.801C648.105 550.201 647.505 550.401 646.605 550.401H643.305V542.801H646.505C647.305 542.801 647.905 543.001 648.305 543.301C648.705 543.601 648.905 544.101 648.905 544.701C648.905 545.201 648.805 545.601 648.505 545.901C648.205 546.201 647.905 546.401 647.505 546.501C648.105 546.501 648.405 546.701 648.705 547.101ZM644.905 545.901H646.305C646.705 545.901 647.005 545.801 647.205 545.601C647.405 545.401 647.505 545.201 647.505 544.901C647.505 544.601 647.405 544.301 647.205 544.201C647.005 544.101 646.705 543.901 646.305 543.901H645.005V545.901H644.905ZM647.305 548.801C647.505 548.601 647.605 548.401 647.605 548.001C647.605 547.701 647.505 547.401 647.305 547.201C647.105 547.001 646.805 546.901 646.405 546.901H645.005V549.001H646.405C646.705 549.101 647.005 549.001 647.305 548.801Z" fill="#665BFF"/>
<path d="M658.005 548.501C657.705 549.101 657.205 549.501 656.605 549.801C656.005 550.101 655.305 550.301 654.505 550.301H651.805V542.701H654.505C655.305 542.701 656.005 542.901 656.605 543.201C657.205 543.501 657.705 544.001 658.005 544.501C658.305 545.101 658.505 545.701 658.505 546.501C658.505 547.301 658.305 547.901 658.005 548.501ZM656.305 548.301C656.705 547.901 657.005 547.301 657.005 546.501C657.005 545.701 656.805 545.101 656.305 544.701C655.905 544.301 655.205 544.101 654.405 544.101H653.305V549.001H654.405C655.205 549.001 655.805 548.801 656.305 548.301Z" fill="#665BFF"/>
<path d="M662.702 542.701V547.101C662.702 547.701 662.802 548.101 663.102 548.401C663.402 548.701 663.702 548.801 664.202 548.801C664.702 548.801 665.102 548.701 665.302 548.401C665.502 548.101 665.702 547.701 665.702 547.101V542.701H667.202V547.101C667.202 547.801 667.102 548.401 666.802 548.901C666.502 549.401 666.202 549.701 665.702 550.001C665.202 550.301 664.702 550.401 664.102 550.401C663.202 550.401 662.502 550.101 661.902 549.601C661.402 549.101 661.102 548.301 661.102 547.201V542.801H662.702V542.701Z" fill="#665BFF"/>
<path d="M671.702 549.201H674.202V550.401H670.102V542.801H671.602V549.201H671.702Z" fill="#665BFF"/>
<path d="M678.202 549.201H680.702V550.401H676.602V542.801H678.102V549.201H678.202Z" fill="#665BFF"/>
<path d="M687.905 548.801H684.905L684.405 550.301H682.805L685.605 542.801H687.305L690.105 550.301H688.505L687.905 548.801ZM687.505 547.701L686.405 544.501L685.305 547.701H687.505Z" fill="#665BFF"/>
<path d="M698.8 542.701V550.301H697.3V547.001H694V550.301H692.5V542.701H694V545.801H697.2V542.701H698.8V542.701Z" fill="#665BFF"/>
<path d="M710.003 542.702V548.002C710.003 548.702 709.803 549.302 709.403 549.702C709.003 550.102 708.403 550.302 707.703 550.302C706.903 550.302 706.303 550.102 705.903 549.602C705.403 549.202 705.203 548.502 705.203 547.702H706.703C706.703 548.102 706.803 548.402 706.903 548.602C707.103 548.802 707.303 548.902 707.603 548.902C707.903 548.902 708.103 548.802 708.203 548.602C708.303 548.402 708.403 548.202 708.403 547.902V542.602H710.003V542.702Z" fill="#665BFF"/>
<path d="M717.6 548.801H714.6L714.1 550.301H712.5L715.3 542.801H717L719.8 550.301H718.2L717.6 548.801ZM717.1 547.701L716 544.501L714.9 547.701H717.1Z" fill="#665BFF"/>
<path d="M728.2 542.701L725.6 547.601V550.301H724.1V547.601L721.5 542.701H723.2L724.8 546.001L726.4 542.701H728.2Z" fill="#665BFF"/>
<path d="M732.203 543.901V545.901H734.903V547.101H732.203V549.101H735.203V550.301H730.703V542.701H735.203V543.901H732.203V543.901Z" fill="#665BFF"/>
<path d="M744.106 548.501C743.806 549.101 743.306 549.501 742.706 549.801C742.106 550.101 741.406 550.301 740.606 550.301H737.906V542.701H740.606C741.406 542.701 742.106 542.901 742.706 543.201C743.306 543.501 743.806 544.001 744.106 544.501C744.406 545.001 744.606 545.701 744.606 546.501C744.606 547.301 744.406 547.901 744.106 548.501ZM742.406 548.301C742.806 547.901 743.106 547.301 743.106 546.501C743.106 545.701 742.906 545.101 742.406 544.701C741.906 544.301 741.306 544.101 740.506 544.101H739.406V549.001H740.506C741.306 549.001 741.906 548.801 742.406 548.301Z" fill="#665BFF"/>
<path d="M655.402 558.702C655.802 559.002 656.102 559.502 656.302 560.102H655.202C655.102 559.802 654.902 559.602 654.702 559.402C654.502 559.202 654.202 559.102 653.802 559.102C653.502 559.102 653.302 559.202 653.002 559.302C652.802 559.402 652.602 559.602 652.502 559.902C652.402 560.202 652.302 560.502 652.302 560.802C652.302 561.102 652.402 561.502 652.502 561.702C652.602 562.002 652.802 562.202 653.002 562.302C653.202 562.402 653.502 562.502 653.802 562.502C654.102 562.502 654.402 562.402 654.702 562.302C654.902 562.102 655.102 561.902 655.202 561.602H656.302C656.202 562.202 655.902 562.702 655.402 563.002C655.002 563.302 654.402 563.502 653.702 563.502C653.202 563.502 652.702 563.402 652.302 563.202C651.902 563.002 651.602 562.602 651.402 562.202C651.202 561.802 651.102 561.302 651.102 560.802C651.102 560.302 651.202 559.802 651.402 559.402C651.602 559.002 651.902 558.702 652.302 558.402C652.702 558.102 653.102 558.102 653.702 558.102C654.402 558.202 654.902 558.302 655.402 558.702Z" fill="white"/>
<path d="M658.905 559.101V560.501H660.805V561.301H658.905V562.701H661.005V563.601H657.805V558.301H661.005V559.101H658.905V559.101Z" fill="white"/>
<path d="M666.403 558.502C666.803 558.702 667.103 559.102 667.403 559.502C667.703 559.902 667.803 560.402 667.803 560.902C667.803 561.402 667.703 561.902 667.403 562.302C667.203 562.702 666.803 563.002 666.403 563.302C666.003 563.502 665.503 563.602 665.003 563.602C664.503 563.602 664.003 563.502 663.603 563.302C663.203 563.102 662.903 562.702 662.603 562.302C662.403 561.902 662.203 561.402 662.203 560.902C662.203 560.402 662.303 559.902 662.603 559.502C662.903 559.102 663.203 558.802 663.603 558.502C664.003 558.302 664.503 558.202 665.003 558.202C665.503 558.102 666.003 558.302 666.403 558.502ZM664.203 559.302C664.003 559.402 663.803 559.602 663.603 559.902C663.503 560.202 663.403 560.502 663.403 560.802C663.403 561.202 663.503 561.502 663.603 561.702C663.703 562.002 663.903 562.202 664.203 562.302C664.403 562.402 664.703 562.502 665.003 562.502C665.303 562.502 665.603 562.402 665.803 562.302C666.003 562.202 666.203 562.002 666.403 561.702C666.603 561.402 666.603 561.102 666.603 560.802C666.603 560.402 666.503 560.102 666.403 559.902C666.303 559.702 666.103 559.402 665.803 559.302C665.603 559.202 665.303 559.102 665.003 559.102C664.703 559.102 664.403 559.202 664.203 559.302Z" fill="white"/>
<path d="M670.1 563.702C670.1 564.002 670 564.302 669.9 564.502C669.7 564.702 669.5 564.802 669.1 564.802V564.402C669.2 564.402 669.3 564.402 669.4 564.302C669.5 564.202 669.5 564.102 669.5 564.002V563.902H669V562.902H669.9C670.1 563.102 670.1 563.402 670.1 563.702Z" fill="white"/>
<path d="M677.4 558.202V559.002H675.2V560.402H677V561.202H675.2V563.402H674V558.102H677.4V558.202Z" fill="white"/>
<path d="M679.898 558.201V561.301C679.898 561.701 679.998 562.001 680.198 562.201C680.398 562.401 680.698 562.501 680.998 562.501C681.298 562.501 681.598 562.401 681.798 562.201C681.998 562.001 682.098 561.701 682.098 561.301V558.201H683.198V561.301C683.198 561.801 683.098 562.201 682.898 562.601C682.698 562.901 682.498 563.201 682.098 563.401C681.798 563.601 681.398 563.601 680.998 563.601C680.398 563.601 679.798 563.401 679.498 563.001C679.098 562.601 678.898 562.101 678.898 561.301V558.201H679.898V558.201Z" fill="white"/>
<path d="M689.303 563.601H688.203L685.803 560.001V563.601H684.703V558.301H685.803L688.203 562.001V558.301H689.303V563.601Z" fill="white"/>
<path d="M695.4 562.301C695.2 562.701 694.9 563.001 694.4 563.201C694 563.401 693.5 563.501 692.9 563.501H691V558.201H692.9C693.5 558.201 694 558.301 694.4 558.501C694.8 558.701 695.1 559.001 695.4 559.401C695.6 559.801 695.7 560.301 695.7 560.801C695.7 561.401 695.6 561.901 695.4 562.301ZM694.2 562.201C694.5 561.901 694.7 561.501 694.7 560.901C694.7 560.401 694.5 559.901 694.2 559.601C693.9 559.301 693.4 559.101 692.9 559.101H692.2V562.601H692.9C693.4 562.601 693.8 562.501 694.2 562.201Z" fill="white"/>
<path d="M698.303 559.101V560.501H700.203V561.301H698.303V562.701H700.403V563.601H697.203V558.301H700.403V559.101H698.303V559.101Z" fill="white"/>
<path d="M706.4 562.301C706.2 562.701 705.9 563.001 705.4 563.201C705 563.401 704.5 563.501 703.9 563.501H702V558.201H703.9C704.5 558.201 705 558.301 705.4 558.501C705.8 558.701 706.1 559.001 706.4 559.401C706.6 559.801 706.7 560.301 706.7 560.801C706.7 561.401 706.6 561.901 706.4 562.301ZM705.1 562.201C705.4 561.901 705.6 561.501 705.6 560.901C705.6 560.401 705.4 559.901 705.1 559.601C704.8 559.301 704.3 559.101 703.8 559.101H703.1V562.601H703.8C704.4 562.601 704.8 562.501 705.1 562.201Z" fill="white"/>
<path d="M712.803 563.601H711.703L709.303 560.001V563.601H708.203V558.301H709.303L711.703 562.001V558.301H712.803V563.601Z" fill="white"/>
<path d="M715.6 559.101V560.501H717.5V561.301H715.6V562.701H717.7V563.601H714.5V558.301H717.7V559.101H715.6V559.101Z" fill="white"/>
<path d="M722.398 563.601L721.198 561.801L720.098 563.601H718.898L720.598 560.901L718.898 558.301H720.198L721.398 560.101L722.498 558.301H723.698L721.998 561.001L723.798 563.701H722.398V563.601Z" fill="white"/>
<path d="M728.6 558.201V559.001H727.1V563.501H726V559.001H724.5V558.201H728.6Z" fill="white"/>
<path d="M612.602 530.102H766.602" stroke="white" stroke-width="0.4866" stroke-miterlimit="10"/>
<path d="M642.603 515.801C643.703 512.501 644.503 509.601 645.103 507.301C642.003 507.601 638.603 508.301 635.403 508.601C634.303 510.401 633.303 512.201 632.303 513.901C632.203 514.501 632.003 515.101 631.903 515.601C631.203 518.001 630.803 519.601 630.003 520.201C629.903 520.301 629.703 520.401 629.603 520.401C629.403 520.401 629.303 520.201 629.303 519.901C629.303 519.101 629.903 517.201 631.903 513.901C632.203 512.901 632.503 511.801 632.503 510.701C632.503 510.101 632.403 509.501 632.103 509.001C630.503 509.101 629.003 509.201 627.803 509.201C626.003 509.201 624.803 509.101 624.703 508.801V508.701C624.703 508.101 627.003 506.901 629.103 506.901C630.303 506.901 631.403 507.301 632.103 508.301C633.203 508.201 634.403 508.101 635.503 508.001C638.103 503.801 641.003 499.701 642.703 498.301C642.803 498.201 642.803 498.201 642.903 498.101C643.803 497.401 644.603 496.901 645.403 496.801C645.503 496.801 645.603 496.801 645.703 496.801C647.003 496.801 647.403 498.101 647.403 499.801C647.403 502.501 646.403 506.101 646.103 507.101H646.503C647.103 507.101 647.503 507.101 647.503 507.301C647.503 507.501 647.003 507.801 645.803 508.001C645.103 510.501 644.203 513.401 643.003 516.901C643.003 517.101 642.703 517.301 642.503 517.301C642.203 517.301 641.903 517.101 641.903 516.801C642.003 516.201 642.503 516.201 642.603 515.801ZM629.303 507.201C627.403 507.201 625.303 508.301 625.303 508.301C625.303 508.401 625.803 508.501 626.603 508.501C627.703 508.501 629.503 508.401 631.603 508.201C631.103 507.501 630.203 507.201 629.303 507.201ZM629.703 519.701C629.703 519.801 629.703 519.801 629.703 519.701C629.903 519.801 630.803 518.201 631.603 515.601V515.501C630.103 518.101 629.703 519.401 629.703 519.701ZM632.503 508.901C632.803 509.501 632.903 510.101 632.903 510.601C632.903 511.301 632.703 512.001 632.603 512.701C633.403 511.301 634.203 510.001 635.003 508.601C633.903 508.701 633.303 508.801 632.503 508.901ZM646.803 499.201C646.803 497.901 646.503 497.001 645.703 497.001C645.603 497.001 645.603 497.001 645.503 497.001C644.903 497.101 644.103 497.601 643.203 498.201C643.203 498.201 643.103 498.301 643.003 498.301C641.303 499.701 638.603 503.601 636.103 507.701C639.203 507.401 642.303 507.001 645.403 506.901C645.503 506.101 646.803 501.901 646.803 499.201ZM647.103 507.201C647.003 507.201 646.603 507.201 646.003 507.301V507.401C646.703 507.201 647.103 507.201 647.103 507.201Z" fill="white"/>
<path d="M649.302 507.401L649.202 507.501C648.902 508.901 648.702 509.901 648.602 510.601C649.202 509.001 650.302 507.001 651.902 507.001C653.002 507.101 653.302 507.801 653.302 508.701C653.302 508.901 653.302 509.201 653.202 509.401C654.002 509.001 654.802 508.801 655.802 508.601C655.902 508.601 656.002 508.701 656.002 508.801C656.002 508.901 656.002 509.001 655.902 509.001C654.902 509.201 654.002 509.201 653.202 509.701C653.002 510.901 652.602 512.101 651.902 513.001C651.202 513.901 650.302 514.701 649.702 514.701C649.502 514.701 649.302 514.601 649.102 514.401C649.002 514.301 649.002 514.101 649.002 514.001C649.002 512.501 651.502 510.301 652.602 509.801C652.602 509.601 652.702 509.401 652.702 509.101C652.702 508.401 652.502 507.601 651.902 507.601C649.602 507.601 648.502 512.201 648.502 512.201C648.502 512.301 648.402 512.301 648.302 512.301C648.202 512.301 648.202 512.301 648.102 512.101C648.102 512.101 648.102 512.001 648.102 511.601C648.102 511.001 648.202 509.701 648.702 507.301C649.202 504.901 650.802 501.001 652.502 499.201C652.702 499.001 653.002 498.801 653.302 498.801C653.402 498.801 653.402 498.801 653.502 498.801C653.602 498.801 653.602 498.901 653.702 499.001C653.802 499.101 653.802 499.301 653.802 499.501C653.802 500.201 653.402 501.201 652.802 502.401C651.802 504.301 650.402 506.201 649.302 507.401ZM649.202 513.901C649.202 514.001 649.202 514.101 649.302 514.201C649.402 514.301 649.502 514.401 649.602 514.401C650.102 514.401 650.702 513.701 651.202 512.901C651.902 511.901 652.202 511.101 652.502 509.901C651.802 510.201 649.202 512.901 649.202 513.901ZM652.102 502.301C652.302 502.001 653.302 500.001 653.302 499.301C653.302 499.201 653.302 499.201 653.302 499.101C653.302 499.101 653.302 499.101 653.202 499.101C653.102 499.101 653.002 499.201 652.802 499.401C651.402 500.801 650.002 504.301 649.502 506.101C650.602 504.701 651.202 503.901 652.102 502.301Z" fill="white"/>
<path d="M662.105 500.501C662.705 499.501 663.105 499.301 663.405 499.301C663.605 499.301 663.805 499.501 663.805 499.701C663.805 499.701 663.805 499.701 663.805 499.801V499.901C663.805 502.401 659.505 508.201 659.505 508.201L658.605 510.601C657.805 512.701 657.405 515.301 657.405 516.501C657.405 516.601 657.405 516.801 657.405 516.801C657.505 517.701 658.105 518.001 658.305 518.001C658.405 518.001 658.605 518.101 658.605 518.301C658.605 518.401 658.605 518.401 658.505 518.501H658.405C658.205 518.501 657.905 518.201 657.905 518.201C657.405 517.601 657.205 516.501 657.205 516.501C657.205 516.401 657.205 516.201 657.205 516.101C657.205 513.701 658.305 510.001 658.805 509.001C658.805 509.001 657.105 511.001 656.305 511.401C656.205 511.501 656.005 511.501 655.905 511.501C655.505 511.501 655.305 511.101 655.305 510.601C655.305 510.401 655.305 510.101 655.405 509.901C655.705 508.701 656.505 507.401 657.605 507.101C657.805 507.101 657.905 507.001 658.005 507.001C658.805 507.001 659.105 507.701 659.105 507.701C660.105 504.901 660.905 502.501 662.105 500.501ZM658.305 507.501H658.205C657.705 507.601 656.905 508.301 656.405 509.201C656.105 509.601 655.905 510.301 655.905 510.701C655.905 510.901 655.905 511.001 656.105 511.001C656.205 511.001 656.505 510.801 656.905 510.301C658.405 508.601 658.805 508.101 658.805 508.101C658.805 508.101 658.805 507.501 658.305 507.501ZM662.905 501.101C663.105 500.701 663.305 500.101 663.305 499.901C663.305 499.801 663.305 499.801 663.205 499.801C662.905 499.801 662.305 500.901 662.305 500.901C661.305 502.501 660.105 506.401 660.105 506.401C661.105 504.601 662.605 501.601 662.905 501.101Z" fill="white"/>
<path d="M662.103 510.6C662.103 510.9 662.203 511 662.403 511H662.503C663.203 510.8 665.103 508.2 665.103 507.5C665.103 507.3 665.303 507.2 665.403 507.2C665.603 507.2 665.903 507.5 665.903 507.8C665.903 507.8 665.703 508.7 665.703 509.5C665.703 510 665.803 510.4 666.103 510.6C666.103 510.6 666.203 510.6 666.303 510.6C667.303 510.6 669.903 508.5 669.903 508.4C670.003 508.4 670.003 508.3 670.103 508.3C670.203 508.3 670.403 508.4 670.403 508.6V508.7C670.403 508.7 667.803 510.8 666.403 510.8C666.303 510.8 666.103 510.8 666.003 510.7C665.503 510.4 665.403 509.7 665.403 509V509C664.803 510.1 663.603 511.7 662.603 511.7C662.503 511.7 662.403 511.7 662.303 511.6C661.903 511.4 661.703 510.9 661.703 510.4C661.703 508.9 662.803 506.8 662.803 506.8C662.903 506.6 663.103 506.5 663.203 506.5C663.503 506.5 663.803 506.7 663.803 507V507.1C662.703 508.5 662.103 509.9 662.103 510.6Z" fill="white"/>
<path d="M675.306 497.801C675.606 497.901 675.706 498.101 675.706 498.401C675.706 499.801 673.306 503.001 672.506 504.201L672.306 504.501C671.406 505.801 668.806 513.101 668.806 516.801C668.806 518.101 669.106 518.901 669.806 519.001C669.906 519.001 670.006 519.101 670.006 519.201C670.006 519.301 669.906 519.501 669.806 519.501C669.806 519.501 669.806 519.501 669.706 519.501C668.806 519.101 668.406 517.801 668.406 516.101C668.406 513.101 669.506 508.801 671.106 504.901L671.506 504.001C673.006 500.501 674.606 497.801 675.306 497.801ZM672.706 514.801C672.706 515.201 672.706 515.501 672.906 515.701C673.006 516.001 673.206 516.101 673.406 516.101C675.006 516.101 678.806 510.601 679.706 509.001C679.806 508.701 679.906 508.401 679.906 508.401C680.006 508.201 680.106 508.101 680.306 508.101C680.406 508.101 680.506 508.201 680.506 508.401C680.506 508.401 675.506 516.201 673.306 516.201C673.006 516.201 672.706 516.001 672.506 515.701C672.406 515.401 672.306 515.101 672.306 514.601C672.306 511.501 674.606 504.201 676.206 502.101C676.606 501.401 677.006 500.901 677.306 500.501C677.706 500.101 678.006 499.801 678.306 499.801C678.506 499.801 678.706 499.901 678.806 500.201C678.806 500.301 678.906 500.501 678.906 500.701C678.906 502.801 675.806 507.701 674.206 509.101C674.106 509.201 674.006 509.201 673.906 509.401C673.006 512.001 672.706 513.801 672.706 514.801ZM675.006 498.801C675.106 498.601 675.106 498.501 675.106 498.401C674.906 498.401 672.806 502.701 672.806 502.901C673.406 502.101 674.706 499.601 675.006 498.801ZM678.406 500.501C678.406 500.401 678.406 500.401 678.406 500.401C678.406 500.301 678.306 500.301 678.306 500.301C678.206 500.301 678.006 500.501 677.706 500.801C677.406 501.201 677.006 501.701 676.706 502.301C676.006 503.601 675.006 506.201 674.406 507.801C675.106 507.101 678.406 501.801 678.406 500.501Z" fill="white"/>
<path d="M682.102 509.002C681.202 509.902 680.102 510.902 679.602 510.902C679.602 510.902 679.602 510.902 679.502 510.902C679.402 510.902 679.302 510.802 679.202 510.702C679.102 510.602 679.102 510.402 679.102 510.302C679.102 510.202 679.102 510.202 679.102 510.102C679.102 509.902 679.202 509.702 679.302 509.402C679.602 508.602 680.402 507.702 681.302 507.502C681.502 507.402 681.802 507.402 681.902 507.402C682.302 507.402 682.502 507.502 682.702 507.702C683.102 507.402 683.502 507.102 683.702 507.102H683.802C684.002 507.102 684.002 507.302 684.002 507.502C684.002 507.802 683.902 508.202 683.702 508.702C683.602 509.102 683.502 509.402 683.502 509.602C683.502 510.202 683.902 510.402 684.502 510.402C686.002 510.402 688.802 508.802 689.302 508.302C689.402 508.202 689.502 508.102 689.502 508.102C689.602 508.102 689.702 508.202 689.702 508.302C689.702 508.402 689.702 508.402 689.602 508.502C689.502 508.702 686.302 510.602 684.402 510.602C683.602 510.602 683.102 510.302 683.102 509.402C683.102 509.202 683.102 508.902 683.202 508.602C683.302 508.102 683.402 507.702 683.402 507.602C683.402 507.602 683.202 507.802 682.902 508.002C682.902 508.102 682.902 508.302 682.902 508.402C682.802 508.602 682.602 508.602 682.502 508.602H682.402V508.502C682.302 508.802 682.302 508.802 682.102 509.002ZM681.902 508.202C681.302 508.202 680.302 509.502 680.302 509.802C680.302 509.802 680.302 509.902 680.402 509.902C680.602 509.902 681.302 509.302 682.102 508.302C682.002 508.302 681.902 508.202 681.902 508.202Z" fill="white"/>
<path d="M694.605 499.602C694.605 501.802 690.305 508.302 690.205 508.302L690.105 508.502C689.805 509.402 689.605 510.102 689.305 511.002C689.605 510.502 691.605 507.702 692.705 507.702C692.905 507.702 693.105 507.802 693.205 508.102C693.205 508.102 693.205 508.202 693.205 508.302C693.205 508.702 693.005 509.602 693.005 510.202C693.005 510.502 693.005 510.702 693.205 510.802C693.305 510.802 693.305 510.902 693.405 510.902C693.705 510.902 694.205 510.702 694.705 510.402C695.505 510.002 696.505 509.302 697.205 508.602C697.205 508.602 697.305 508.502 697.405 508.502C697.505 508.502 697.605 508.602 697.605 508.702C697.605 508.802 697.605 508.802 697.505 508.902C696.705 509.602 695.705 510.402 694.905 510.802C694.405 511.002 693.905 511.202 693.605 511.202C693.405 511.202 693.205 511.102 693.005 511.002C692.705 510.802 692.605 510.302 692.605 509.902C692.605 509.302 692.805 508.602 692.805 508.302C692.805 508.302 692.805 508.302 692.705 508.302C692.105 508.302 689.105 512.002 688.805 513.002C688.805 513.202 688.705 513.202 688.605 513.202C688.505 513.202 688.305 513.102 688.305 512.902V512.802C688.405 511.802 688.605 510.702 689.105 509.202V509.102C689.105 509.002 689.105 508.802 689.105 508.702C689.105 508.602 689.105 508.502 689.105 508.402C689.205 508.202 689.505 507.902 689.605 507.702C690.705 504.902 692.105 501.302 693.105 499.802C693.305 499.602 693.705 499.102 694.105 499.102C694.205 499.102 694.305 499.102 694.405 499.202C694.505 499.202 694.605 499.402 694.605 499.602ZM694.005 499.702C694.005 499.602 694.005 499.502 693.905 499.502C693.905 499.502 693.605 499.602 693.405 499.902C692.605 501.002 690.805 505.802 690.405 507.002C691.705 505.102 694.005 500.802 694.005 499.702Z" fill="white"/>
<path d="M706.903 506.302C706.903 505.902 707.003 505.402 707.303 504.902C708.403 502.602 711.803 499.402 714.903 497.902C715.803 497.502 716.603 497.202 717.303 497.102C717.503 497.102 717.603 497.102 717.803 497.102C718.303 497.102 718.803 497.302 719.003 497.602C719.203 497.902 719.403 498.302 719.403 498.802C719.403 498.902 719.403 499.002 719.403 499.102C719.203 501.202 718.203 505.802 716.203 510.802C718.003 509.902 719.503 509.202 721.703 508.302H721.803C722.003 508.302 722.103 508.402 722.103 508.602C722.103 508.702 722.003 508.902 721.803 509.002C719.503 509.702 717.703 510.402 715.803 511.402C714.103 515.602 709.903 525.402 705.503 526.602C705.003 526.702 704.603 526.802 704.303 526.802C702.803 526.802 702.203 525.802 702.203 524.502C702.203 523.602 702.503 522.502 703.003 521.502C704.503 518.702 708.103 515.102 715.303 511.302C717.403 506.202 718.703 501.302 718.903 499.102C718.903 499.002 718.903 498.902 718.903 498.802C718.903 498.402 718.803 498.102 718.603 497.902C718.403 497.702 718.103 497.602 717.603 497.602C717.503 497.602 717.303 497.602 717.203 497.602C716.503 497.702 715.803 498.002 714.903 498.402C711.903 499.902 708.703 502.702 707.603 504.902C707.403 505.302 707.303 505.702 707.303 506.102C707.303 508.802 712.903 509.002 712.903 509.002H713.003C713.303 509.002 713.403 509.202 713.403 509.502C713.403 509.802 713.203 510.102 712.803 510.102H712.703C713.003 509.902 706.903 509.402 706.903 506.302ZM703.703 521.702C703.203 522.702 702.803 523.802 702.803 524.702C702.803 525.602 703.203 526.302 704.303 526.302C704.603 526.302 705.003 526.202 705.403 526.102C709.103 525.102 713.403 515.502 715.003 511.702C708.203 515.302 705.203 519.002 703.703 521.702Z" fill="white"/>
<path d="M723.5 509.002C722.6 509.902 721.5 510.902 721 510.902C721 510.902 721 510.902 720.9 510.902C720.8 510.902 720.7 510.802 720.6 510.702C720.5 510.602 720.5 510.402 720.5 510.302C720.5 510.202 720.5 510.202 720.5 510.102C720.5 509.902 720.6 509.702 720.7 509.402C721 508.602 721.8 507.702 722.7 507.502C722.9 507.402 723.2 507.402 723.3 507.402C723.7 507.402 723.9 507.502 724.1 507.702C724.5 507.402 724.9 507.102 725.1 507.102H725.2C725.4 507.102 725.4 507.302 725.4 507.502C725.4 507.802 725.3 508.202 725.1 508.702C725 509.102 724.9 509.402 724.9 509.602C724.9 510.202 725.3 510.402 725.9 510.402C727.4 510.402 730.2 508.802 730.7 508.302C730.8 508.202 730.9 508.102 730.9 508.102C731 508.102 731.1 508.202 731.1 508.302C731.1 508.402 731.1 508.402 731 508.502C730.9 508.702 727.7 510.602 725.8 510.602C725 510.602 724.5 510.302 724.5 509.402C724.5 509.202 724.5 508.902 724.6 508.602C724.7 508.102 724.8 507.702 724.8 507.602C724.8 507.602 724.6 507.802 724.3 508.002C724.3 508.102 724.3 508.302 724.3 508.402C724.2 508.602 724 508.602 723.9 508.602H723.8V508.502C723.8 508.802 723.7 508.802 723.5 509.002ZM723.3 508.202C722.7 508.202 721.7 509.502 721.7 509.802C721.7 509.802 721.7 509.902 721.8 509.902C722 509.902 722.7 509.302 723.5 508.302C723.4 508.302 723.4 508.202 723.3 508.202Z" fill="white"/>
<path d="M736.806 507.701C736.806 508.701 736.206 510.301 736.106 510.801C737.106 509.401 740.006 508.301 741.106 508.301C741.206 508.301 741.206 508.301 741.306 508.301C741.406 508.301 741.506 508.401 741.506 508.501C741.506 508.601 741.406 508.701 741.306 508.801C738.706 508.901 736.806 510.401 735.806 511.701C735.306 513.401 734.206 516.401 733.606 517.901C733.406 518.301 732.306 521.301 731.606 521.301H731.506C731.206 521.201 731.106 520.801 731.106 520.501C731.106 520.101 731.206 519.701 731.306 519.501C731.506 518.801 731.906 517.801 732.306 516.801C732.906 515.401 734.106 513.501 735.006 512.201C735.106 511.701 735.406 510.901 735.506 510.401C735.606 510.201 736.106 508.001 736.106 507.501C736.106 507.401 736.106 507.401 736.106 507.401C735.706 507.401 732.706 511.201 731.706 511.501C731.506 511.501 731.406 511.601 731.206 511.601C730.806 511.601 730.506 511.401 730.506 511.101C730.506 510.901 730.406 510.801 730.406 510.601C730.406 509.501 731.006 508.101 731.206 507.101C731.206 506.901 731.406 506.801 731.506 506.801C731.806 506.801 732.206 507.101 732.206 507.301V507.401C732.006 508.301 731.506 509.401 731.506 510.401C731.506 510.501 731.506 510.601 731.506 510.701C731.506 510.901 731.606 511.001 731.706 511.001C732.806 510.801 735.106 507.001 736.206 507.001C736.706 506.801 736.806 507.201 736.806 507.701ZM734.506 513.501C734.006 514.401 733.206 516.001 732.906 516.901C732.506 517.901 732.106 518.801 731.906 519.601C731.806 520.101 731.706 520.501 731.706 520.701C731.906 520.501 732.706 519.201 733.306 517.501C733.706 516.501 734.206 514.701 734.506 513.501Z" fill="white"/>
<path d="M743.205 507.7C743.205 508.7 741.605 509.4 741.205 509.5C741.205 509.6 741.205 509.7 741.205 509.7C741.205 510 741.205 510.3 741.405 510.5C741.605 510.7 741.805 510.8 742.205 510.8C743.905 510.8 747.205 508.3 747.205 508.3H747.305C747.505 508.3 747.605 508.4 747.605 508.6C747.605 508.7 747.605 508.7 747.505 508.8C747.505 508.8 744.305 511.1 742.305 511.1C741.805 511.1 741.405 510.9 741.105 510.5C740.905 510.2 740.805 509.8 740.805 509.5C740.805 508.8 741.105 508.2 741.505 507.7C741.705 507.4 742.005 507.3 742.205 507.1C742.405 507 742.505 507 742.705 507C742.805 507 742.905 507 742.905 507C743.105 507.1 743.205 507.2 743.205 507.5C743.105 507.6 743.205 507.7 743.205 507.7ZM742.405 507.7C742.105 507.7 741.905 508.1 741.305 508.9C742.105 508.2 742.405 507.8 742.405 507.7Z" fill="white"/>
<path d="M753.206 500.501C753.806 499.501 754.206 499.301 754.506 499.301C754.706 499.301 754.906 499.501 754.906 499.701C754.906 499.701 754.906 499.701 754.906 499.801V499.901C754.906 502.401 750.606 508.201 750.606 508.201L749.706 510.601C748.906 512.701 748.506 515.301 748.506 516.501C748.506 516.601 748.506 516.801 748.506 516.801C748.606 517.701 749.206 518.001 749.406 518.001C749.506 518.001 749.706 518.101 749.706 518.301C749.706 518.401 749.706 518.401 749.606 518.501H749.506C749.306 518.501 749.006 518.201 749.006 518.201C748.406 517.601 748.306 516.501 748.306 516.501C748.306 516.401 748.306 516.201 748.306 516.101C748.306 513.701 749.406 510.001 749.906 509.001C749.906 509.001 748.206 511.001 747.406 511.401C747.306 511.501 747.106 511.501 747.006 511.501C746.606 511.501 746.406 511.101 746.406 510.601C746.406 510.401 746.406 510.101 746.506 509.901C746.806 508.701 747.606 507.401 748.706 507.101C748.906 507.101 749.006 507.001 749.106 507.001C749.906 507.001 750.206 507.701 750.206 507.701C751.206 504.901 752.006 502.501 753.206 500.501ZM749.406 507.501H749.306C748.806 507.601 748.006 508.301 747.506 509.201C747.206 509.601 747.006 510.301 747.006 510.701C747.006 510.901 747.006 511.001 747.206 511.001C747.306 511.001 747.606 510.801 748.006 510.301C749.506 508.601 749.906 508.101 749.906 508.101C749.906 508.101 749.806 507.501 749.406 507.501ZM753.906 501.101C754.106 500.701 754.306 500.101 754.306 499.901C754.306 499.801 754.306 499.801 754.206 499.801C753.906 499.801 753.306 500.901 753.306 500.901C752.306 502.501 751.106 506.401 751.106 506.401C752.206 504.601 753.706 501.601 753.906 501.101Z" fill="white"/>
<path d="M420.898 245.6V349.7" stroke="url(#paint1_linear_1654_1520)" stroke-miterlimit="10"/>
<path d="M556.164 119.83H305.664V153.53H556.164V119.83Z" fill="#100B4A"/>
<path d="M319.269 139.03V145.93H314.469V126.23H322.169C324.469 126.23 326.269 126.83 327.469 127.93C328.669 129.13 329.269 130.63 329.269 132.63C329.269 133.83 328.969 134.93 328.469 135.93C327.969 136.93 327.069 137.63 326.069 138.23C324.969 138.73 323.669 139.03 322.169 139.03H319.269V139.03ZM324.569 132.63C324.569 130.93 323.569 130.03 321.669 130.03H319.269V135.13H321.669C323.669 135.23 324.569 134.33 324.569 132.63Z" fill="white"/>
<path d="M347.466 145.93L343.166 138.53H342.066V145.93H337.266V126.23H345.366C346.966 126.23 348.266 126.53 349.366 127.03C350.466 127.53 351.266 128.33 351.766 129.23C352.266 130.13 352.566 131.23 352.566 132.43C352.566 133.83 352.166 135.03 351.366 136.03C350.566 137.03 349.466 137.73 347.966 138.13L352.666 145.83H347.466V145.93ZM342.066 135.23H345.066C345.966 135.23 346.666 135.03 347.166 134.63C347.566 134.23 347.866 133.63 347.866 132.73C347.866 131.93 347.666 131.33 347.166 130.93C346.666 130.53 346.066 130.23 345.066 130.23H342.066V135.23Z" fill="white"/>
<path d="M375.072 127.23C376.572 128.13 377.772 129.33 378.672 130.83C379.572 132.33 379.972 134.13 379.972 136.03C379.972 137.93 379.572 139.73 378.672 141.23C377.772 142.73 376.572 143.93 375.072 144.83C373.572 145.73 371.872 146.13 370.072 146.13C368.272 146.13 366.572 145.73 365.072 144.83C363.572 143.93 362.372 142.73 361.472 141.23C360.572 139.73 360.172 137.93 360.172 136.03C360.172 134.13 360.572 132.33 361.472 130.83C362.372 129.33 363.572 128.13 365.072 127.23C366.572 126.33 368.272 125.93 370.072 125.93C371.872 125.93 373.472 126.33 375.072 127.23ZM366.272 131.83C365.372 132.83 364.872 134.23 364.872 135.93C364.872 137.63 365.372 139.03 366.272 140.03C367.172 141.03 368.472 141.53 369.972 141.53C371.472 141.53 372.772 141.03 373.672 140.03C374.572 139.03 375.072 137.63 375.072 135.93C375.072 134.23 374.572 132.83 373.672 131.83C372.772 130.83 371.472 130.33 369.972 130.33C368.372 130.33 367.172 130.83 366.272 131.83Z" fill="white"/>
<path d="M400.972 126.23V130.03H392.972V134.33H399.172V137.93H392.972V145.93H388.172V126.23H400.972V126.23Z" fill="white"/>
<path d="M413.769 126.23V145.93H408.969V126.23H413.769V126.23Z" fill="white"/>
<path d="M436.767 126.23V130.03H431.467V145.93H426.667V130.03H421.367V126.23H436.767V126.23Z" fill="white"/>
<path d="M468.87 143.23C468.37 144.13 467.57 144.83 466.57 145.33C465.57 145.83 464.27 146.13 462.87 146.13C460.67 146.13 458.87 145.63 457.37 144.53C455.97 143.43 455.17 141.93 455.07 140.03H460.17C460.27 140.73 460.47 141.33 460.97 141.83C461.47 142.23 461.97 142.43 462.67 142.43C463.27 142.43 463.77 142.23 464.07 141.93C464.47 141.63 464.57 141.13 464.57 140.63C464.57 140.13 464.37 139.73 464.07 139.33C463.77 139.03 463.37 138.73 462.87 138.53C462.37 138.33 461.67 138.03 460.87 137.73C459.67 137.33 458.57 136.93 457.87 136.53C457.07 136.13 456.37 135.53 455.87 134.73C455.27 133.93 455.07 132.93 455.07 131.63C455.07 130.43 455.37 129.43 455.97 128.63C456.57 127.73 457.37 127.13 458.47 126.63C459.47 126.13 460.67 125.93 462.07 125.93C464.27 125.93 465.97 126.43 467.27 127.53C468.57 128.53 469.27 130.03 469.47 131.83H464.27C464.17 131.23 463.97 130.63 463.57 130.33C463.17 129.93 462.67 129.73 462.07 129.73C461.47 129.73 461.07 129.83 460.67 130.13C460.37 130.43 460.17 130.83 460.17 131.43C460.17 131.93 460.37 132.33 460.67 132.63C460.97 132.93 461.37 133.23 461.87 133.43C462.37 133.63 462.97 133.93 463.87 134.23C465.17 134.63 466.17 135.03 466.97 135.53C467.77 135.93 468.47 136.53 469.07 137.33C469.67 138.13 469.97 139.13 469.97 140.43C469.67 141.43 469.37 142.33 468.87 143.23Z" fill="white"/>
<path d="M482.566 139.03V145.93H477.766V126.23H485.466C487.766 126.23 489.566 126.83 490.766 127.93C491.966 129.13 492.566 130.63 492.566 132.63C492.566 133.83 492.266 134.93 491.766 135.93C491.266 136.93 490.366 137.63 489.366 138.23C488.266 138.73 486.966 139.03 485.466 139.03H482.566V139.03ZM487.866 132.63C487.866 130.93 486.866 130.03 484.966 130.03H482.566V135.13H484.966C486.966 135.23 487.866 134.33 487.866 132.63Z" fill="white"/>
<path d="M505.37 142.229H511.67V145.829H500.57V126.129H505.37V142.229Z" fill="white"/>
<path d="M524.269 126.23V145.93H519.469V126.23H524.269V126.23Z" fill="white"/>
<path d="M547.267 126.23V130.03H541.967V145.93H537.167V130.03H531.867V126.23H547.267V126.23Z" fill="white"/>
<path d="M287.197 79.7C286.097 79.6 284.797 79.5 283.597 79.1C281.397 78.3 280.597 76.8 281.097 74.5C281.497 73 282.197 71.7 282.997 70.5C284.997 67.5 287.397 64.9 289.897 62.5C291.997 60.5 294.197 58.6 296.297 56.6C296.397 56.5 296.497 56.4 296.597 56.3C295.997 55.4 295.497 54.5 294.897 53.5C298.397 53.5 301.797 53.5 305.397 53.5C304.097 57.2 302.897 60.7 301.597 64.4C300.897 63.3 300.297 62.3 299.697 61.3C299.597 61.3 299.597 61.3 299.497 61.4C295.797 63.9 292.197 66.5 288.897 69.5C287.497 70.7 286.297 72 285.197 73.6C284.597 74.4 284.097 75.3 283.897 76.4C283.697 77.5 284.097 78.4 285.097 79C285.897 79.2 286.597 79.4 287.197 79.7Z" fill="#100B4A"/>
<path d="M327.698 74C328.898 74.3 329.998 74.6 330.898 75.2C332.398 76.1 332.898 77.5 332.198 79.1C331.598 80.6 330.498 81.9 329.398 83C326.898 85.6 323.998 87.7 320.998 89.7C319.498 90.7 317.998 91.6 316.598 92.5C316.498 92.6 316.398 92.6 316.298 92.7C316.598 93.6 316.998 94.4 317.298 95.3C314.298 94.8 311.398 94.3 308.398 93.7C309.998 90.8 311.598 87.9 313.198 85C313.598 86 313.998 87 314.398 88C315.398 87.5 316.398 87.1 317.398 86.6C320.498 85.1 323.598 83.5 326.298 81.4C327.198 80.7 328.098 79.9 328.898 79.1C329.298 78.7 329.598 78.2 329.798 77.7C330.298 76.6 330.098 75.6 329.098 74.9C328.698 74.5 328.198 74.3 327.698 74Z" fill="#100B4A"/>
<path d="M318.995 66.5996C318.995 70.2996 318.995 73.9996 318.995 77.5996C318.495 75.4996 317.995 73.3996 317.495 71.2996C312.695 75.4996 307.095 77.9996 300.995 79.3996C303.595 86.9996 305.095 94.6996 303.895 102.7C303.595 93.7996 301.695 85.2996 297.695 77.2996C305.895 76.0996 313.095 72.7996 318.995 66.5996Z" fill="#635BFD"/>
<path d="M312.394 64.5996C312.494 65.6996 312.594 66.6996 312.694 67.6996C312.694 67.9996 312.594 68.1996 312.394 68.3996C309.894 70.4996 307.094 71.9996 304.094 72.9996C300.794 74.1996 297.294 74.8996 293.794 75.2996C293.694 75.2996 293.694 75.2996 293.494 75.2996C296.794 80.8996 299.494 86.6996 300.394 93.0996C297.994 85.7996 294.494 78.9996 289.094 73.2996C289.894 73.1996 290.594 73.1996 291.294 73.0996C297.594 72.3996 303.594 70.8996 308.894 67.2996C309.994 66.5996 310.894 65.6996 311.894 64.8996C312.094 64.8996 312.194 64.7996 312.394 64.5996Z" fill="#635BFD"/>
<path d="M341.898 66.9004C341.898 66.1004 342.198 65.4004 342.798 64.8004C343.398 64.2004 344.098 63.9004 344.898 63.9004H362.398V68.8004H347.698V74.9004H358.698V76.8004C358.698 77.6004 358.398 78.3004 357.798 78.9004C357.198 79.5004 356.498 79.8004 355.698 79.8004H347.698V92.0004H341.998V66.9004H341.898Z" fill="#635BFD"/>
<path d="M384.298 83.3C384.298 87.1 383.298 89.6 381.398 90.8C379.498 91.9 377.298 92.5 374.898 92.5C372.598 92.5 370.598 91.9 368.698 90.6C366.798 89.4 365.898 87 365.898 83.3V70.1H371.398V84.4C371.398 86.8 372.598 88 375.098 88C377.598 88 378.798 86.8 378.798 84.4V72.8C378.698 71 379.598 70 381.498 70H384.298V83.3Z" fill="#635BFD"/>
<path d="M403.697 92.0008C401.897 91.9008 400.897 91.0008 400.897 89.2008V78.0008C400.797 75.7008 399.497 74.6008 397.097 74.6008C394.697 74.6008 393.397 75.7008 393.397 78.0008V92.0008H387.797V79.2008C387.797 72.9008 390.897 69.8008 397.197 69.8008C403.497 69.8008 406.597 72.9008 406.497 79.2008V92.0008H403.697Z" fill="#635BFD"/>
<path d="M427.495 63.9004C428.295 63.9004 428.895 64.2004 429.395 64.7004C429.895 65.2004 430.195 65.9004 430.195 66.6004V69.6004V82.6004C430.195 89.2004 426.795 92.5004 419.895 92.4004C413.095 92.3004 409.695 88.6004 409.695 81.3004C409.695 73.8004 412.595 70.0004 418.395 69.8004C421.195 69.8004 423.195 70.9004 424.595 73.2004V63.9004H427.495V63.9004ZM420.195 74.7004C417.195 74.7004 415.695 76.8004 415.495 81.0004C415.395 85.4004 416.995 87.6004 420.095 87.6004C423.195 87.6004 424.795 85.4004 424.795 81.0004C424.695 76.8004 423.095 74.7004 420.195 74.7004Z" fill="#635BFD"/>
<path d="M453.195 85.3012C452.595 87.8012 451.495 89.6012 449.995 90.7012C448.195 91.9012 446.095 92.5012 443.695 92.5012C437.095 92.3012 433.695 88.4012 433.695 81.0012C433.695 73.5012 436.995 69.8012 443.695 69.7012C450.695 69.7012 453.895 74.0012 453.495 82.6012H439.295C439.495 85.9012 440.995 87.6012 443.695 87.6012C444.995 87.6012 446.195 87.1012 447.295 86.1012C447.795 85.6012 448.395 85.3012 449.195 85.3012H453.195V85.3012ZM447.695 78.7012C447.395 75.8012 445.995 74.3012 443.695 74.3012C441.395 74.3012 439.895 75.8012 439.495 78.7012H447.695Z" fill="#635BFD"/>
<path d="M474.597 63.9004C475.397 63.9004 475.997 64.2004 476.497 64.7004C476.997 65.2004 477.297 65.9004 477.297 66.6004V69.6004V82.6004C477.297 89.2004 473.897 92.5004 466.997 92.4004C460.197 92.3004 456.797 88.6004 456.797 81.3004C456.797 73.8004 459.697 70.0004 465.497 69.8004C468.297 69.8004 470.297 70.9004 471.697 73.2004V63.9004H474.597V63.9004ZM467.297 74.7004C464.297 74.7004 462.797 76.8004 462.597 81.0004C462.497 85.4004 464.097 87.6004 467.197 87.6004C470.297 87.6004 471.897 85.4004 471.897 81.0004C471.797 76.8004 470.197 74.7004 467.297 74.7004Z" fill="#635BFD"/>
<path d="M481 66.9004C481 66.1004 481.3 65.4004 481.9 64.8004C482.5 64.2004 483.2 63.9004 484 63.9004H487.1L498.6 83.3004V63.9004H504.3V92.0004H498.3L486.8 72.6004V92.0004H481V66.9004Z" fill="#100B4A"/>
<path d="M527.703 85.3012C527.103 87.8012 526.003 89.6012 524.503 90.7012C522.703 91.9012 520.603 92.5012 518.203 92.5012C511.603 92.3012 508.203 88.4012 508.203 81.0012C508.203 73.5012 511.503 69.8012 518.203 69.7012C525.203 69.7012 528.403 74.0012 528.003 82.6012H513.803C514.003 85.9012 515.503 87.6012 518.203 87.6012C519.503 87.6012 520.703 87.1012 521.803 86.1012C522.303 85.6012 522.903 85.3012 523.703 85.3012H527.703V85.3012ZM522.103 78.7012C521.803 75.8012 520.403 74.3012 518.103 74.3012C515.703 74.3012 514.303 75.8012 513.903 78.7012H522.103Z" fill="#100B4A"/>
<path d="M542.5 92L538.6 85L534.6 92H528L535.1 80.7L528.4 70H534.7L538.5 76.6L542.7 69.5C543.2 68.5 544 68 545.1 68H550.1L541.8 80.7L549.1 91.9H542.5V92Z" fill="#100B4A"/>
<path d="M555.101 91.8004C553.001 91.6004 552.001 90.3004 552.101 87.9004V63.9004H554.901C555.601 63.9004 556.201 64.2004 556.801 64.7004C557.301 65.2004 557.601 65.9004 557.601 66.6004V70.1004H560.901V71.3004C560.901 72.1004 560.601 72.8004 560.101 73.3004C559.601 73.8004 558.901 74.1004 558.201 74.1004H557.601V86.2004C557.601 87.1004 558.101 87.6004 559.201 87.6004H560.901V91.8004C559.101 92.0004 557.201 91.9004 555.101 91.8004Z" fill="#100B4A"/>
<path d="M140.602 6.30078V14.5008H130.102L140.602 6.30078Z" fill="#4343EF"/>
<path d="M6.60156 140.301H14.9016V130.201L6.60156 140.301Z" fill="#4343EF"/>
<path d="M92.2016 6.30078L6.60156 91.9008V140.301L140.602 6.30078H92.2016Z" fill="#635BFD"/>
</g>
<defs>
<linearGradient id="paint0_linear_1654_1520" x1="103.289" y1="-138.23" x2="554.956" y2="787.69" gradientUnits="userSpaceOnUse">
<stop stop-color="#48484D"/>
<stop offset="0.2096" stop-color="#404045"/>
<stop offset="0.5336" stop-color="#2A2A2F"/>
<stop offset="0.9296" stop-color="#07070C"/>
<stop offset="1" stop-color="#000005"/>
</linearGradient>
<linearGradient id="paint1_linear_1654_1520" x1="-nan" y1="-nan" x2="-nan" y2="-nan" gradientUnits="userSpaceOnUse">
<stop stop-color="#48484D"/>
<stop offset="0.2096" stop-color="#404045"/>
<stop offset="0.5336" stop-color="#2A2A2F"/>
<stop offset="0.9296" stop-color="#07070C"/>
<stop offset="1" stop-color="#000005"/>
</linearGradient>
<clipPath id="clip0_1654_1520">
<rect width="841.9" height="595.3" fill="white"/>
</clipPath>
</defs>
</svg>
