<svg width="842" height="596" viewBox="0 0 842 596" fill="none" xmlns="http://www.w3.org/2000/svg">
<g clip-path="url(#clip0_1654_1521)">
<path d="M841.9 0H0V595.3H841.9V0Z" fill="white"/>
<path d="M826.883 580.294L826.883 14.9941L14.9828 14.9941L14.9828 580.294L826.883 580.294Z" fill="#F4F4F4"/>
<path d="M826.883 580.294L826.883 14.9941L14.9828 14.9941L14.9828 580.294L826.883 580.294Z" stroke="#665BFF" stroke-miterlimit="10"/>
<path d="M841.9 464.301H0V595.201H841.9V464.301Z" fill="#665BFF"/>
<path d="M841.9 595.299H0V536.299L841.9 430.699V595.299Z" fill="url(#paint0_linear_1654_1521)"/>
<path d="M802.203 249.1H39.7031V413.8H802.203V249.1Z" fill="#E8E8E8"/>
<path d="M330.603 236.3V229.9L327.203 219.5H330.103L332.203 226.1L334.103 219.5H336.903L333.603 229.9V236.3H330.603Z" fill="#606060"/>
<path d="M342.706 236.5C341.506 236.5 340.606 236.3 339.906 235.8C339.206 235.4 338.706 234.7 338.406 233.9C338.106 233.1 337.906 232.1 337.906 231V224.7C337.906 223.6 338.106 222.6 338.406 221.8C338.706 221 339.206 220.4 339.906 220C340.606 219.6 341.506 219.4 342.706 219.4C343.906 219.4 344.906 219.6 345.606 220C346.306 220.4 346.806 221 347.106 221.8C347.406 222.6 347.606 223.6 347.606 224.7V231C347.606 232.1 347.406 233.1 347.106 233.9C346.806 234.7 346.306 235.4 345.606 235.8C344.906 236.3 343.906 236.5 342.706 236.5ZM342.706 234.2C343.206 234.2 343.606 234.1 343.806 233.9C344.006 233.7 344.206 233.4 344.306 233C344.406 232.6 344.406 232.2 344.406 231.7V224C344.406 223.5 344.406 223.1 344.306 222.7C344.206 222.3 344.106 222 343.806 221.8C343.606 221.6 343.206 221.5 342.706 221.5C342.206 221.5 341.906 221.6 341.606 221.8C341.406 222 341.206 222.3 341.106 222.7C341.006 223.1 341.006 223.5 341.006 224V231.7C341.006 232.2 341.006 232.6 341.106 233C341.206 233.4 341.306 233.7 341.606 233.9C341.906 234.1 342.206 234.2 342.706 234.2Z" fill="#606060"/>
<path d="M354.403 236.502C353.203 236.502 352.203 236.302 351.503 235.802C350.803 235.302 350.303 234.702 350.103 233.902C349.903 233.102 349.703 232.102 349.703 230.902V219.602H352.703V231.302C352.703 231.802 352.703 232.302 352.803 232.802C352.903 233.302 353.003 233.602 353.303 233.902C353.603 234.202 353.903 234.302 354.403 234.302C354.903 234.302 355.303 234.202 355.603 233.902C355.903 233.602 356.003 233.202 356.103 232.802C356.203 232.302 356.203 231.802 356.203 231.302V219.602H359.203V230.902C359.203 232.102 359.103 233.102 358.803 233.902C358.503 234.702 358.103 235.402 357.403 235.802C356.603 236.302 355.603 236.502 354.403 236.502Z" fill="#606060"/>
<path d="M361.5 236.302V219.602H365.5C366.6 219.602 367.6 219.702 368.4 220.002C369.2 220.302 369.8 220.702 370.2 221.402C370.6 222.002 370.8 222.902 370.8 224.002C370.8 224.702 370.7 225.302 370.6 225.802C370.5 226.302 370.3 226.802 370 227.202C369.7 227.602 369.3 227.902 368.8 228.102L371.1 236.302H368L366 228.602H364.6V236.302H361.5ZM364.6 226.702H365.6C366.2 226.702 366.7 226.602 367 226.402C367.4 226.202 367.6 226.002 367.8 225.602C368 225.202 368 224.702 368 224.102C368 223.302 367.8 222.602 367.5 222.202C367.2 221.802 366.6 221.602 365.7 221.602H364.6V226.702Z" fill="#606060"/>
<path d="M378.102 236.302V219.602H383.002C384.002 219.602 384.802 219.802 385.402 220.202C386.002 220.602 386.502 221.102 386.802 221.802C387.102 222.502 387.202 223.402 387.202 224.402C387.202 225.502 387.002 226.402 386.602 227.002C386.202 227.602 385.702 228.202 385.002 228.502C384.302 228.802 383.502 229.002 382.602 229.002H380.902V236.402H378.102V236.302ZM381.102 226.702H382.302C382.902 226.702 383.302 226.602 383.602 226.502C383.902 226.302 384.102 226.102 384.202 225.702C384.302 225.302 384.402 224.902 384.402 224.302C384.402 223.702 384.402 223.202 384.302 222.802C384.202 222.402 384.002 222.102 383.702 222.002C383.402 221.802 382.902 221.702 382.302 221.702H381.102V226.702Z" fill="#606060"/>
<path d="M388.906 236.302V219.602H392.906C394.006 219.602 395.006 219.702 395.806 220.002C396.606 220.302 397.206 220.702 397.606 221.402C398.006 222.002 398.206 222.902 398.206 224.002C398.206 224.702 398.106 225.302 398.006 225.802C397.906 226.302 397.706 226.802 397.406 227.202C397.106 227.602 396.706 227.902 396.206 228.102L398.506 236.302H395.406L393.406 228.602H392.006V236.302H388.906ZM391.906 226.702H392.906C393.506 226.702 394.006 226.602 394.306 226.402C394.706 226.202 394.906 226.002 395.106 225.602C395.306 225.202 395.306 224.702 395.306 224.102C395.306 223.302 395.106 222.602 394.806 222.202C394.506 221.802 393.906 221.602 393.006 221.602H391.906V226.702Z" fill="#606060"/>
<path d="M404.902 236.5C403.702 236.5 402.802 236.3 402.102 235.8C401.402 235.4 400.902 234.7 400.602 233.9C400.302 233.1 400.102 232.1 400.102 231V224.7C400.102 223.6 400.302 222.6 400.602 221.8C400.902 221 401.402 220.4 402.102 220C402.802 219.6 403.702 219.4 404.902 219.4C406.102 219.4 407.102 219.6 407.802 220C408.502 220.4 409.002 221 409.302 221.8C409.602 222.6 409.802 223.6 409.802 224.7V231C409.802 232.1 409.602 233.1 409.302 233.9C409.002 234.7 408.502 235.4 407.802 235.8C407.102 236.3 406.102 236.5 404.902 236.5ZM404.902 234.2C405.402 234.2 405.802 234.1 406.002 233.9C406.202 233.7 406.402 233.4 406.502 233C406.602 232.6 406.602 232.2 406.602 231.7V224C406.602 223.5 406.602 223.1 406.502 222.7C406.402 222.3 406.302 222 406.002 221.8C405.802 221.6 405.402 221.5 404.902 221.5C404.402 221.5 404.102 221.6 403.802 221.8C403.602 222 403.402 222.3 403.302 222.7C403.202 223.1 403.202 223.5 403.202 224V231.7C403.202 232.2 403.202 232.6 403.302 233C403.402 233.4 403.502 233.7 403.802 233.9C404.102 234.1 404.402 234.2 404.902 234.2Z" fill="#606060"/>
<path d="M412 236.302V219.602H418.9V221.702H415.1V226.602H418.2V228.702H415.1V236.302H412Z" fill="#606060"/>
<path d="M420.602 236.302V219.602H423.602V236.302H420.602Z" fill="#606060"/>
<path d="M427.802 236.3V221.8H425.102V219.5H433.402V221.8H430.802V236.3H427.802Z" fill="#606060"/>
<path d="M444.303 236.501C443.303 236.501 442.503 236.301 441.803 235.901C441.103 235.501 440.603 234.901 440.303 234.201C440.003 233.401 439.803 232.501 439.703 231.401L442.303 230.901C442.303 231.501 442.403 232.101 442.503 232.601C442.603 233.101 442.803 233.501 443.103 233.701C443.403 233.901 443.703 234.101 444.203 234.101C444.703 234.101 445.003 234.001 445.303 233.701C445.503 233.401 445.603 233.001 445.603 232.601C445.603 231.901 445.403 231.301 445.103 230.801C444.803 230.301 444.303 229.901 443.803 229.401L441.703 227.501C441.103 227.001 440.603 226.401 440.303 225.801C439.903 225.201 439.803 224.401 439.803 223.501C439.803 222.201 440.203 221.201 441.003 220.401C441.803 219.701 442.803 219.301 444.203 219.301C445.003 219.301 445.603 219.401 446.203 219.701C446.703 219.901 447.103 220.301 447.503 220.701C447.803 221.101 448.003 221.601 448.203 222.201C448.403 222.701 448.403 223.301 448.503 223.901L445.903 224.401C445.903 223.901 445.803 223.401 445.703 223.001C445.603 222.601 445.503 222.301 445.203 222.001C445.003 221.801 444.603 221.601 444.203 221.601C443.703 221.601 443.403 221.701 443.203 222.001C443.003 222.301 442.803 222.701 442.803 223.101C442.803 223.701 442.903 224.101 443.203 224.501C443.403 224.901 443.803 225.201 444.203 225.601L446.303 227.401C447.003 228.001 447.603 228.701 448.103 229.401C448.603 230.201 448.803 231.101 448.803 232.201C448.803 233.001 448.603 233.701 448.303 234.301C447.903 234.901 447.503 235.401 446.803 235.801C445.903 236.301 445.103 236.501 444.303 236.501Z" fill="#606060"/>
<path d="M450.203 236.302V219.602H453.203V226.602H456.603V219.602H459.703V236.302H456.603V228.702H453.203V236.302H450.203Z" fill="#606060"/>
<path d="M461.406 236.302L464.706 219.602H468.006L471.306 236.302H468.506L467.806 232.402H464.906L464.206 236.302H461.406ZM465.206 230.402H467.506L466.406 223.402L465.206 230.402Z" fill="#606060"/>
<path d="M472.906 236.302V219.602H476.906C478.006 219.602 479.006 219.702 479.806 220.002C480.606 220.302 481.206 220.702 481.606 221.402C482.006 222.002 482.206 222.902 482.206 224.002C482.206 224.702 482.106 225.302 482.006 225.802C481.906 226.302 481.706 226.802 481.406 227.202C481.106 227.602 480.706 227.902 480.206 228.102L482.506 236.302H479.406L477.406 228.602H476.006V236.302H472.906ZM476.006 226.702H477.006C477.606 226.702 478.106 226.602 478.406 226.402C478.806 226.202 479.006 226.002 479.206 225.602C479.406 225.202 479.406 224.702 479.406 224.102C479.406 223.302 479.206 222.602 478.906 222.202C478.606 221.802 478.006 221.602 477.106 221.602H476.006V226.702Z" fill="#606060"/>
<path d="M484.5 236.302V219.602H491.5V221.702H487.5V226.502H490.6V228.602H487.5V234.102H491.5V236.202H484.5V236.302Z" fill="#606060"/>
<path d="M498.406 236.302V219.602H501.406V236.302H498.406Z" fill="#606060"/>
<path d="M508.202 236.501C507.202 236.501 506.402 236.301 505.702 235.901C505.002 235.501 504.502 234.901 504.202 234.201C503.902 233.401 503.702 232.501 503.602 231.401L506.202 230.901C506.202 231.501 506.302 232.101 506.402 232.601C506.502 233.101 506.702 233.501 507.002 233.701C507.302 233.901 507.602 234.101 508.102 234.101C508.602 234.101 508.902 234.001 509.202 233.701C509.402 233.401 509.502 233.001 509.502 232.601C509.502 231.901 509.302 231.301 509.002 230.801C508.702 230.301 508.202 229.901 507.702 229.401L505.602 227.501C505.002 227.001 504.502 226.401 504.202 225.801C503.802 225.201 503.702 224.401 503.702 223.501C503.702 222.201 504.102 221.201 504.902 220.401C505.702 219.701 506.702 219.301 508.102 219.301C508.902 219.301 509.502 219.401 510.102 219.701C510.602 219.901 511.002 220.301 511.402 220.701C511.702 221.101 511.902 221.601 512.102 222.201C512.302 222.701 512.302 223.301 512.402 223.901L509.802 224.401C509.802 223.901 509.702 223.401 509.602 223.001C509.502 222.601 509.402 222.301 509.102 222.001C508.902 221.801 508.502 221.601 508.102 221.601C507.602 221.601 507.302 221.701 507.102 222.001C506.902 222.301 506.702 222.701 506.702 223.101C506.702 223.701 506.802 224.101 507.102 224.501C507.302 224.901 507.702 225.201 508.102 225.601L510.202 227.401C510.902 228.001 511.502 228.701 512.002 229.401C512.502 230.201 512.702 231.101 512.702 232.201C512.702 233.001 512.502 233.701 512.202 234.301C511.802 234.901 511.402 235.401 510.702 235.801C509.802 236.301 509.102 236.501 508.202 236.501Z" fill="#606060"/>
<path d="M638.803 548.801H635.803L635.303 550.301H633.703L636.503 542.801H638.203L641.003 550.301H639.403L638.803 548.801ZM638.403 547.701L637.303 544.501L636.203 547.701H638.403Z" fill="#665BFF"/>
<path d="M648.705 547.101C649.005 547.401 649.105 547.801 649.105 548.301C649.105 548.901 648.905 549.401 648.505 549.801C648.105 550.201 647.505 550.401 646.605 550.401H643.305V542.801H646.505C647.305 542.801 647.905 543.001 648.305 543.301C648.705 543.601 648.905 544.101 648.905 544.701C648.905 545.201 648.805 545.601 648.505 545.901C648.205 546.201 647.905 546.401 647.505 546.501C648.105 546.501 648.405 546.701 648.705 547.101ZM644.905 545.901H646.305C646.705 545.901 647.005 545.801 647.205 545.601C647.405 545.401 647.505 545.201 647.505 544.901C647.505 544.601 647.405 544.301 647.205 544.201C647.005 544.101 646.705 543.901 646.305 543.901H645.005V545.901H644.905ZM647.305 548.801C647.505 548.601 647.605 548.401 647.605 548.001C647.605 547.701 647.505 547.401 647.305 547.201C647.105 547.001 646.805 546.901 646.405 546.901H645.005V549.001H646.405C646.705 549.101 647.005 549.001 647.305 548.801Z" fill="#665BFF"/>
<path d="M658.005 548.501C657.705 549.101 657.205 549.501 656.605 549.801C656.005 550.101 655.305 550.301 654.505 550.301H651.805V542.701H654.505C655.305 542.701 656.005 542.901 656.605 543.201C657.205 543.501 657.705 544.001 658.005 544.501C658.305 545.001 658.505 545.701 658.505 546.501C658.505 547.301 658.305 547.901 658.005 548.501ZM656.305 548.301C656.705 547.901 657.005 547.301 657.005 546.501C657.005 545.701 656.805 545.101 656.305 544.701C655.805 544.301 655.205 544.101 654.405 544.101H653.305V549.001H654.405C655.205 549.001 655.805 548.801 656.305 548.301Z" fill="#665BFF"/>
<path d="M662.702 542.701V547.101C662.702 547.701 662.802 548.101 663.102 548.401C663.402 548.701 663.702 548.801 664.202 548.801C664.702 548.801 665.102 548.701 665.302 548.401C665.602 548.101 665.702 547.701 665.702 547.101V542.701H667.202V547.101C667.202 547.801 667.102 548.401 666.802 548.901C666.502 549.401 666.202 549.701 665.702 550.001C665.202 550.201 664.702 550.401 664.102 550.401C663.202 550.401 662.502 550.101 661.902 549.601C661.302 549.101 661.102 548.301 661.102 547.201V542.801H662.702V542.701Z" fill="#665BFF"/>
<path d="M671.702 549.201H674.202V550.401H670.102V542.801H671.602V549.201H671.702Z" fill="#665BFF"/>
<path d="M678.202 549.201H680.702V550.401H676.602V542.801H678.102V549.201H678.202Z" fill="#665BFF"/>
<path d="M687.905 548.801H684.905L684.405 550.301H682.805L685.605 542.801H687.305L690.105 550.301H688.505L687.905 548.801ZM687.505 547.701L686.405 544.501L685.305 547.701H687.505Z" fill="#665BFF"/>
<path d="M698.8 542.701V550.301H697.3V547.001H694V550.301H692.5V542.701H694V545.801H697.2V542.701H698.8Z" fill="#665BFF"/>
<path d="M710.003 542.702V548.002C710.003 548.702 709.803 549.302 709.403 549.702C709.003 550.102 708.403 550.302 707.703 550.302C706.903 550.302 706.303 550.102 705.903 549.602C705.403 549.202 705.203 548.502 705.203 547.702H706.703C706.703 548.102 706.803 548.402 706.903 548.602C707.103 548.802 707.303 548.902 707.603 548.902C707.903 548.902 708.103 548.802 708.203 548.602C708.303 548.402 708.403 548.202 708.403 547.902V542.602H710.003V542.702Z" fill="#665BFF"/>
<path d="M717.6 548.801H714.6L714.1 550.301H712.5L715.3 542.801H717L719.8 550.301H718.2L717.6 548.801ZM717.1 547.701L716 544.501L714.9 547.701H717.1Z" fill="#665BFF"/>
<path d="M728.2 542.701L725.6 547.601V550.301H724.1V547.601L721.5 542.701H723.2L724.8 546.001L726.4 542.701H728.2Z" fill="#665BFF"/>
<path d="M732.203 543.901V545.901H734.903V547.101H732.203V549.101H735.203V550.301H730.703V542.701H735.203V543.901H732.203Z" fill="#665BFF"/>
<path d="M744.106 548.501C743.806 549.101 743.306 549.501 742.706 549.801C742.106 550.101 741.406 550.301 740.606 550.301H737.906V542.701H740.606C741.406 542.701 742.106 542.901 742.706 543.201C743.306 543.501 743.806 544.001 744.106 544.501C744.406 545.101 744.606 545.701 744.606 546.501C744.606 547.301 744.406 547.901 744.106 548.501ZM742.406 548.301C742.806 547.901 743.106 547.301 743.106 546.501C743.106 545.701 742.906 545.101 742.406 544.701C742.006 544.301 741.306 544.101 740.506 544.101H739.406V549.001H740.506C741.306 549.001 741.906 548.801 742.406 548.301Z" fill="#665BFF"/>
<path d="M655.403 558.702C655.803 559.002 656.103 559.502 656.303 560.102H655.203C655.103 559.802 654.903 559.602 654.703 559.402C654.503 559.202 654.203 559.102 653.803 559.102C653.503 559.102 653.303 559.202 653.003 559.302C652.803 559.402 652.603 559.602 652.503 559.902C652.403 560.202 652.303 560.502 652.303 560.802C652.303 561.102 652.403 561.502 652.503 561.702C652.603 562.002 652.803 562.202 653.003 562.302C653.203 562.402 653.503 562.502 653.803 562.502C654.103 562.502 654.403 562.402 654.703 562.302C654.903 562.102 655.103 561.902 655.203 561.602H656.303C656.203 562.202 655.903 562.702 655.403 563.002C654.903 563.302 654.403 563.502 653.703 563.502C653.203 563.502 652.703 563.402 652.403 563.202C652.003 563.002 651.703 562.602 651.503 562.202C651.303 561.802 651.203 561.302 651.203 560.802C651.203 560.302 651.303 559.802 651.503 559.402C651.703 559.002 652.003 558.702 652.403 558.402C652.803 558.202 653.203 558.102 653.803 558.102C654.403 558.202 654.903 558.302 655.403 558.702Z" fill="white"/>
<path d="M658.905 559.101V560.501H660.805V561.301H658.905V562.701H661.005V563.601H657.805V558.301H661.005V559.101H658.905Z" fill="white"/>
<path d="M666.403 558.501C666.803 558.701 667.103 559.101 667.403 559.501C667.703 559.901 667.803 560.401 667.803 560.901C667.803 561.401 667.703 561.901 667.403 562.301C667.203 562.701 666.803 563.001 666.403 563.301C666.003 563.501 665.503 563.601 665.003 563.601C664.503 563.601 664.003 563.501 663.603 563.301C663.203 563.101 662.903 562.701 662.603 562.301C662.403 561.901 662.203 561.401 662.203 560.901C662.203 560.401 662.303 559.901 662.603 559.501C662.803 559.101 663.203 558.801 663.603 558.501C664.003 558.301 664.503 558.201 665.003 558.201C665.503 558.201 666.003 558.301 666.403 558.501ZM664.203 559.301C664.003 559.401 663.803 559.601 663.603 559.901C663.403 560.201 663.403 560.501 663.403 560.801C663.403 561.201 663.503 561.501 663.603 561.701C663.703 561.901 663.903 562.201 664.203 562.301C664.403 562.401 664.703 562.501 665.003 562.501C665.303 562.501 665.603 562.401 665.803 562.301C666.003 562.201 666.203 562.001 666.403 561.701C666.503 561.401 666.603 561.101 666.603 560.801C666.603 560.401 666.503 560.101 666.403 559.901C666.303 559.601 666.103 559.401 665.803 559.301C665.603 559.201 665.303 559.101 665.003 559.101C664.703 559.101 664.403 559.201 664.203 559.301Z" fill="white"/>
<path d="M670.1 563.702C670.1 564.002 670 564.302 669.9 564.502C669.7 564.702 669.5 564.802 669.1 564.802V564.402C669.2 564.402 669.3 564.402 669.4 564.302C669.5 564.202 669.5 564.102 669.5 564.002V563.902H669V562.902H669.9C670.1 563.102 670.1 563.402 670.1 563.702Z" fill="white"/>
<path d="M677.4 558.202V559.002H675.2V560.402H677V561.202H675.2V563.402H674V558.102H677.4V558.202Z" fill="white"/>
<path d="M679.906 558.201V561.301C679.906 561.701 680.006 562.001 680.206 562.201C680.406 562.401 680.706 562.501 681.006 562.501C681.306 562.501 681.606 562.401 681.806 562.201C682.006 562.001 682.106 561.701 682.106 561.301V558.201H683.206V561.301C683.206 561.801 683.106 562.201 682.906 562.601C682.706 562.901 682.506 563.201 682.106 563.401C681.806 563.601 681.406 563.601 681.006 563.601C680.406 563.601 679.806 563.401 679.506 563.001C679.106 562.601 678.906 562.101 678.906 561.301V558.201H679.906Z" fill="white"/>
<path d="M689.303 563.601H688.203L685.803 560.001V563.601H684.703V558.301H685.803L688.203 562.001V558.301H689.303V563.601Z" fill="white"/>
<path d="M695.4 562.301C695.2 562.701 694.9 563.001 694.4 563.201C694 563.401 693.5 563.501 692.9 563.501H691V558.201H692.9C693.5 558.201 694 558.301 694.4 558.501C694.8 558.701 695.1 559.001 695.4 559.401C695.6 559.801 695.7 560.301 695.7 560.801C695.7 561.401 695.6 561.901 695.4 562.301ZM694.2 562.201C694.5 561.901 694.7 561.501 694.7 560.901C694.7 560.401 694.5 559.901 694.2 559.601C693.9 559.301 693.4 559.101 692.9 559.101H692.2V562.601H692.9C693.4 562.601 693.8 562.501 694.2 562.201Z" fill="white"/>
<path d="M698.303 559.101V560.501H700.203V561.301H698.303V562.701H700.403V563.601H697.203V558.301H700.403V559.101H698.303Z" fill="white"/>
<path d="M706.4 562.301C706.2 562.701 705.9 563.001 705.4 563.201C705 563.401 704.5 563.501 703.9 563.501H702V558.201H703.9C704.5 558.201 705 558.301 705.4 558.501C705.8 558.701 706.1 559.001 706.4 559.401C706.6 559.801 706.7 560.301 706.7 560.801C706.7 561.401 706.6 561.901 706.4 562.301ZM705.1 562.201C705.4 561.901 705.6 561.501 705.6 560.901C705.6 560.401 705.4 559.901 705.1 559.601C704.8 559.301 704.3 559.101 703.8 559.101H703.1V562.601H703.8C704.4 562.601 704.8 562.501 705.1 562.201Z" fill="white"/>
<path d="M712.803 563.601H711.703L709.303 560.001V563.601H708.203V558.301H709.303L711.703 562.001V558.301H712.803V563.601Z" fill="white"/>
<path d="M715.6 559.101V560.501H717.5V561.301H715.6V562.701H717.7V563.601H714.5V558.301H717.7V559.101H715.6Z" fill="white"/>
<path d="M722.406 563.601L721.206 561.801L720.106 563.601H718.906L720.606 560.901L718.906 558.301H720.206L721.406 560.101L722.506 558.301H723.706L722.006 561.001L723.806 563.701H722.406V563.601Z" fill="white"/>
<path d="M728.6 558.201V559.001H727.1V563.501H726V559.001H724.5V558.201H728.6Z" fill="white"/>
<path d="M612.602 530.102H766.602" stroke="white" stroke-width="0.4866" stroke-miterlimit="10"/>
<path d="M642.603 515.801C643.703 512.501 644.503 509.601 645.103 507.301C642.003 507.601 638.603 508.301 635.403 508.601C634.303 510.401 633.303 512.201 632.303 513.901C632.203 514.501 632.003 515.101 631.903 515.601C631.203 518.001 630.803 519.601 630.003 520.201C629.903 520.301 629.703 520.401 629.603 520.401C629.403 520.401 629.303 520.201 629.303 519.901C629.303 519.101 629.903 517.201 631.903 513.901C632.203 512.901 632.503 511.801 632.503 510.701C632.503 510.101 632.403 509.501 632.103 509.001C630.503 509.101 629.003 509.201 627.803 509.201C626.003 509.201 624.803 509.101 624.703 508.801V508.701C624.703 508.101 627.003 506.901 629.103 506.901C630.303 506.901 631.403 507.301 632.103 508.301C633.203 508.201 634.403 508.101 635.503 508.001C638.103 503.801 641.003 499.701 642.703 498.301C642.803 498.201 642.803 498.201 642.903 498.101C643.803 497.401 644.603 496.901 645.403 496.801C645.503 496.801 645.603 496.801 645.703 496.801C647.003 496.801 647.403 498.101 647.403 499.801C647.403 502.501 646.403 506.101 646.103 507.101H646.503C647.103 507.101 647.503 507.101 647.503 507.301C647.503 507.501 647.003 507.801 645.803 508.001C645.103 510.501 644.203 513.401 643.003 516.901C643.003 517.101 642.703 517.301 642.503 517.301C642.203 517.301 641.903 517.101 641.903 516.801C642.003 516.201 642.503 516.201 642.603 515.801ZM629.303 507.201C627.403 507.201 625.303 508.301 625.303 508.301C625.303 508.401 625.803 508.501 626.603 508.501C627.703 508.501 629.503 508.401 631.603 508.201C631.103 507.501 630.203 507.201 629.303 507.201ZM629.703 519.701C629.703 519.801 629.703 519.801 629.703 519.701C629.903 519.801 630.803 518.201 631.603 515.601V515.501C630.103 518.101 629.703 519.401 629.703 519.701ZM632.503 508.901C632.803 509.501 632.903 510.101 632.903 510.601C632.903 511.301 632.703 512.001 632.603 512.701C633.403 511.301 634.203 510.001 635.003 508.601C633.903 508.701 633.303 508.801 632.503 508.901ZM646.803 499.201C646.803 497.901 646.503 497.001 645.703 497.001C645.603 497.001 645.603 497.001 645.503 497.001C644.903 497.101 644.103 497.601 643.203 498.201C643.203 498.201 643.103 498.301 643.003 498.301C641.303 499.701 638.603 503.601 636.103 507.701C639.203 507.401 642.303 507.001 645.403 506.901C645.503 506.101 646.803 501.901 646.803 499.201ZM647.103 507.201C647.003 507.201 646.603 507.201 646.003 507.301V507.401C646.703 507.201 647.103 507.201 647.103 507.201Z" fill="white"/>
<path d="M649.302 507.401L649.202 507.501C648.902 508.901 648.702 509.901 648.602 510.601C649.202 509.001 650.302 507.001 651.902 507.001C653.002 507.101 653.302 507.801 653.302 508.701C653.302 508.901 653.302 509.201 653.202 509.401C654.002 509.001 654.802 508.801 655.802 508.601C655.902 508.601 656.002 508.701 656.002 508.801C656.002 508.901 656.002 509.001 655.902 509.001C654.902 509.201 654.002 509.201 653.202 509.701C653.002 510.901 652.602 512.101 651.902 513.001C651.202 513.901 650.302 514.701 649.702 514.701C649.502 514.701 649.302 514.601 649.102 514.401C649.002 514.301 649.002 514.101 649.002 514.001C649.002 512.501 651.502 510.301 652.602 509.801C652.602 509.601 652.702 509.401 652.702 509.101C652.702 508.401 652.502 507.601 651.902 507.601C649.602 507.601 648.502 512.201 648.502 512.201C648.502 512.301 648.402 512.301 648.302 512.301C648.202 512.301 648.202 512.301 648.102 512.101C648.102 512.101 648.102 512.001 648.102 511.601C648.102 511.001 648.202 509.701 648.702 507.301C649.202 504.901 650.802 501.001 652.502 499.201C652.702 499.001 653.002 498.801 653.302 498.801C653.402 498.801 653.402 498.801 653.502 498.801C653.602 498.801 653.602 498.901 653.702 499.001C653.802 499.101 653.802 499.301 653.802 499.501C653.802 500.201 653.402 501.201 652.802 502.401C651.802 504.301 650.402 506.201 649.302 507.401ZM649.202 513.901C649.202 514.001 649.202 514.101 649.302 514.201C649.402 514.301 649.502 514.401 649.602 514.401C650.102 514.401 650.702 513.701 651.202 512.901C651.902 511.901 652.202 511.101 652.502 509.901C651.802 510.201 649.202 512.901 649.202 513.901ZM652.102 502.301C652.302 502.001 653.302 500.001 653.302 499.301C653.302 499.201 653.302 499.201 653.302 499.101C653.302 499.101 653.302 499.101 653.202 499.101C653.102 499.101 653.002 499.201 652.802 499.401C651.402 500.801 650.002 504.301 649.502 506.101C650.602 504.701 651.202 503.901 652.102 502.301Z" fill="white"/>
<path d="M662.105 500.501C662.705 499.501 663.105 499.301 663.405 499.301C663.605 499.301 663.805 499.501 663.805 499.701C663.805 499.701 663.805 499.701 663.805 499.801V499.901C663.805 502.401 659.505 508.201 659.505 508.201L658.605 510.601C657.805 512.701 657.405 515.301 657.405 516.501C657.405 516.601 657.405 516.801 657.405 516.801C657.505 517.701 658.105 518.001 658.305 518.001C658.405 518.001 658.605 518.101 658.605 518.301C658.605 518.401 658.605 518.401 658.505 518.501H658.405C658.205 518.501 657.905 518.201 657.905 518.201C657.305 517.601 657.205 516.501 657.205 516.501C657.205 516.401 657.205 516.201 657.205 516.101C657.205 513.701 658.305 510.001 658.805 509.001C658.805 509.001 657.105 511.001 656.305 511.401C656.205 511.501 656.005 511.501 655.905 511.501C655.505 511.501 655.305 511.101 655.305 510.601C655.305 510.401 655.305 510.101 655.405 509.901C655.705 508.701 656.505 507.401 657.605 507.101C657.805 507.101 657.905 507.001 658.005 507.001C658.805 507.001 659.105 507.701 659.105 507.701C660.105 504.901 660.905 502.501 662.105 500.501ZM658.305 507.501H658.205C657.705 507.601 656.905 508.301 656.405 509.201C656.105 509.601 655.905 510.301 655.905 510.701C655.905 510.901 655.905 511.001 656.105 511.001C656.205 511.001 656.505 510.801 656.905 510.301C658.405 508.601 658.805 508.101 658.805 508.101C658.805 508.101 658.805 507.501 658.305 507.501ZM662.905 501.101C663.105 500.701 663.305 500.101 663.305 499.901C663.305 499.801 663.305 499.801 663.205 499.801C662.905 499.801 662.305 500.901 662.305 500.901C661.305 502.501 660.105 506.401 660.105 506.401C661.105 504.601 662.605 501.601 662.905 501.101Z" fill="white"/>
<path d="M662.103 510.6C662.103 510.9 662.203 511 662.403 511H662.503C663.203 510.8 665.103 508.2 665.103 507.5C665.103 507.3 665.303 507.2 665.403 507.2C665.603 507.2 665.903 507.5 665.903 507.8C665.903 507.8 665.703 508.7 665.703 509.5C665.703 510 665.803 510.4 666.103 510.6C666.103 510.6 666.203 510.6 666.303 510.6C667.303 510.6 669.903 508.5 669.903 508.4C670.003 508.4 670.003 508.3 670.103 508.3C670.203 508.3 670.403 508.4 670.403 508.6V508.7C670.403 508.7 667.803 510.8 666.403 510.8C666.303 510.8 666.103 510.8 666.003 510.7C665.503 510.4 665.403 509.7 665.403 509C664.803 510.1 663.603 511.7 662.603 511.7C662.503 511.7 662.403 511.7 662.303 511.6C661.903 511.4 661.703 510.9 661.703 510.4C661.703 508.9 662.803 506.8 662.803 506.8C662.903 506.6 663.103 506.5 663.203 506.5C663.503 506.5 663.803 506.7 663.803 507V507.1C662.703 508.5 662.103 509.9 662.103 510.6Z" fill="white"/>
<path d="M675.306 497.801C675.606 497.901 675.706 498.101 675.706 498.401C675.706 499.801 673.306 503.001 672.506 504.201L672.306 504.501C671.406 505.801 668.806 513.101 668.806 516.801C668.806 518.101 669.106 518.901 669.806 519.001C669.906 519.001 670.006 519.101 670.006 519.201C670.006 519.301 669.906 519.501 669.806 519.501C669.806 519.501 669.806 519.501 669.706 519.501C668.806 519.101 668.406 517.801 668.406 516.101C668.406 513.101 669.506 508.801 671.106 504.901L671.506 504.001C673.006 500.501 674.606 497.801 675.306 497.801ZM672.706 514.801C672.706 515.201 672.706 515.501 672.906 515.701C673.006 516.001 673.206 516.101 673.406 516.101C675.006 516.101 678.806 510.601 679.706 509.001C679.806 508.701 679.906 508.401 679.906 508.401C680.006 508.201 680.106 508.101 680.306 508.101C680.406 508.101 680.506 508.201 680.506 508.401C680.506 508.401 675.506 516.201 673.306 516.201C673.006 516.201 672.706 516.001 672.506 515.701C672.406 515.401 672.306 515.101 672.306 514.601C672.306 511.501 674.606 504.201 676.206 502.101C676.606 501.401 677.006 500.901 677.306 500.501C677.706 500.101 678.006 499.801 678.306 499.801C678.506 499.801 678.706 499.901 678.806 500.201C678.806 500.301 678.906 500.501 678.906 500.701C678.906 502.801 675.806 507.701 674.206 509.101C674.106 509.201 674.006 509.201 673.906 509.401C673.006 512.001 672.706 513.801 672.706 514.801ZM675.006 498.801C675.106 498.601 675.106 498.501 675.106 498.401C674.906 498.401 672.806 502.701 672.806 502.901C673.406 502.101 674.706 499.601 675.006 498.801ZM678.406 500.501C678.406 500.401 678.406 500.401 678.406 500.401C678.406 500.301 678.306 500.301 678.306 500.301C678.206 500.301 678.006 500.501 677.706 500.801C677.406 501.201 677.006 501.701 676.706 502.301C676.006 503.601 675.006 506.201 674.406 507.801C675.106 507.101 678.406 501.801 678.406 500.501Z" fill="white"/>
<path d="M682.102 509.002C681.202 509.902 680.102 510.902 679.602 510.902C679.602 510.902 679.602 510.902 679.502 510.902C679.402 510.902 679.302 510.802 679.202 510.702C679.102 510.602 679.102 510.402 679.102 510.302C679.102 510.202 679.102 510.202 679.102 510.102C679.102 509.902 679.202 509.702 679.302 509.402C679.602 508.602 680.402 507.702 681.302 507.502C681.502 507.402 681.802 507.402 681.902 507.402C682.302 507.402 682.502 507.502 682.702 507.702C683.102 507.402 683.502 507.102 683.702 507.102H683.802C684.002 507.102 684.002 507.302 684.002 507.502C684.002 507.802 683.902 508.202 683.702 508.702C683.602 509.102 683.502 509.402 683.502 509.602C683.502 510.202 683.902 510.402 684.502 510.402C686.002 510.402 688.802 508.802 689.302 508.302C689.402 508.202 689.502 508.102 689.502 508.102C689.602 508.102 689.702 508.202 689.702 508.302C689.702 508.402 689.702 508.402 689.602 508.502C689.502 508.702 686.302 510.602 684.402 510.602C683.602 510.602 683.102 510.302 683.102 509.402C683.102 509.202 683.102 508.902 683.202 508.602C683.302 508.102 683.402 507.702 683.402 507.602C683.402 507.602 683.202 507.802 682.902 508.002C682.902 508.102 682.902 508.302 682.902 508.402C682.802 508.602 682.602 508.602 682.502 508.602H682.402V508.502C682.302 508.802 682.302 508.802 682.102 509.002ZM681.902 508.202C681.302 508.202 680.302 509.502 680.302 509.802C680.302 509.802 680.302 509.902 680.402 509.902C680.602 509.902 681.302 509.302 682.102 508.302C682.002 508.302 681.902 508.202 681.902 508.202Z" fill="white"/>
<path d="M694.605 499.602C694.605 501.802 690.305 508.302 690.205 508.302L690.105 508.502C689.805 509.402 689.605 510.102 689.305 511.002C689.605 510.502 691.605 507.702 692.705 507.702C692.905 507.702 693.105 507.802 693.205 508.102C693.205 508.102 693.205 508.202 693.205 508.302C693.205 508.702 693.005 509.602 693.005 510.202C693.005 510.502 693.005 510.702 693.205 510.802C693.305 510.802 693.305 510.902 693.405 510.902C693.705 510.902 694.205 510.702 694.705 510.402C695.505 510.002 696.505 509.302 697.205 508.602C697.205 508.602 697.305 508.502 697.405 508.502C697.505 508.502 697.605 508.602 697.605 508.702C697.605 508.802 697.605 508.802 697.505 508.902C696.705 509.602 695.705 510.402 694.905 510.802C694.405 511.002 693.905 511.202 693.605 511.202C693.405 511.202 693.205 511.102 693.005 511.002C692.705 510.802 692.605 510.302 692.605 509.902C692.605 509.302 692.805 508.602 692.805 508.302C692.805 508.302 692.805 508.302 692.705 508.302C692.205 508.302 689.105 512.002 688.805 513.002C688.805 513.202 688.705 513.202 688.605 513.202C688.505 513.202 688.305 513.102 688.305 512.902V512.802C688.405 511.802 688.605 510.702 689.105 509.202V509.102C689.105 509.002 689.105 508.802 689.105 508.702C689.105 508.602 689.105 508.502 689.105 508.402C689.205 508.202 689.505 507.902 689.605 507.702C690.705 504.902 692.105 501.302 693.105 499.802C693.305 499.602 693.705 499.102 694.105 499.102C694.205 499.102 694.305 499.102 694.405 499.202C694.505 499.202 694.605 499.402 694.605 499.602ZM694.005 499.702C694.005 499.602 694.005 499.502 693.905 499.502C693.905 499.502 693.605 499.602 693.405 499.902C692.605 501.002 690.805 505.802 690.405 507.002C691.705 505.102 694.005 500.802 694.005 499.702Z" fill="white"/>
<path d="M706.903 506.302C706.903 505.902 707.003 505.402 707.303 504.902C708.403 502.602 711.803 499.402 714.903 497.902C715.803 497.502 716.603 497.202 717.303 497.102C717.503 497.102 717.603 497.102 717.803 497.102C718.303 497.102 718.803 497.302 719.003 497.602C719.203 497.902 719.403 498.302 719.403 498.802C719.403 498.902 719.403 499.002 719.403 499.102C719.203 501.202 718.203 505.802 716.203 510.802C718.003 509.902 719.503 509.202 721.703 508.302H721.803C722.003 508.302 722.103 508.402 722.103 508.602C722.103 508.702 722.003 508.902 721.803 509.002C719.503 509.702 717.703 510.402 715.803 511.402C714.103 515.602 709.903 525.402 705.503 526.602C705.003 526.702 704.603 526.802 704.303 526.802C702.803 526.802 702.203 525.802 702.203 524.502C702.203 523.602 702.503 522.502 703.003 521.502C704.503 518.702 708.103 515.102 715.303 511.302C717.403 506.202 718.703 501.302 718.903 499.102C718.903 499.002 718.903 498.902 718.903 498.802C718.903 498.402 718.803 498.102 718.603 497.902C718.403 497.702 718.103 497.602 717.603 497.602C717.503 497.602 717.303 497.602 717.203 497.602C716.503 497.702 715.803 498.002 714.903 498.402C711.903 499.902 708.703 502.702 707.603 504.902C707.403 505.302 707.303 505.702 707.303 506.102C707.303 508.802 712.903 509.002 712.903 509.002H713.003C713.303 509.002 713.403 509.202 713.403 509.502C713.403 509.802 713.203 510.102 712.803 510.102H712.703C713.003 509.902 706.903 509.402 706.903 506.302ZM703.703 521.702C703.203 522.702 702.803 523.802 702.803 524.702C702.803 525.602 703.203 526.302 704.303 526.302C704.603 526.302 705.003 526.202 705.403 526.102C709.103 525.102 713.403 515.502 715.003 511.702C708.203 515.302 705.203 519.002 703.703 521.702Z" fill="white"/>
<path d="M723.5 509.002C722.6 509.902 721.5 510.902 721 510.902C721 510.902 721 510.902 720.9 510.902C720.8 510.902 720.7 510.802 720.6 510.702C720.5 510.602 720.5 510.402 720.5 510.302C720.5 510.202 720.5 510.202 720.5 510.102C720.5 509.902 720.6 509.702 720.7 509.402C721 508.602 721.8 507.702 722.7 507.502C722.9 507.402 723.2 507.402 723.3 507.402C723.7 507.402 723.9 507.502 724.1 507.702C724.5 507.402 724.9 507.102 725.1 507.102H725.2C725.4 507.102 725.4 507.302 725.4 507.502C725.4 507.802 725.3 508.202 725.1 508.702C725 509.102 724.9 509.402 724.9 509.602C724.9 510.202 725.3 510.402 725.9 510.402C727.4 510.402 730.2 508.802 730.7 508.302C730.8 508.202 730.9 508.102 730.9 508.102C731 508.102 731.1 508.202 731.1 508.302C731.1 508.402 731.1 508.402 731 508.502C730.9 508.702 727.7 510.602 725.8 510.602C725 510.602 724.5 510.302 724.5 509.402C724.5 509.202 724.5 508.902 724.6 508.602C724.7 508.102 724.8 507.702 724.8 507.602C724.8 507.602 724.6 507.802 724.3 508.002C724.3 508.102 724.3 508.302 724.3 508.402C724.2 508.602 724 508.602 723.9 508.602H723.8V508.502C723.8 508.802 723.7 508.802 723.5 509.002ZM723.3 508.202C722.7 508.202 721.7 509.502 721.7 509.802C721.7 509.802 721.7 509.902 721.8 509.902C722 509.902 722.7 509.302 723.5 508.302C723.4 508.302 723.4 508.202 723.3 508.202Z" fill="white"/>
<path d="M736.806 507.701C736.806 508.701 736.206 510.301 736.106 510.801C737.106 509.401 740.006 508.301 741.106 508.301C741.206 508.301 741.206 508.301 741.306 508.301C741.406 508.301 741.506 508.401 741.506 508.501C741.506 508.601 741.406 508.701 741.306 508.801C738.706 508.901 736.806 510.401 735.806 511.701C735.306 513.401 734.206 516.401 733.606 517.901C733.406 518.301 732.306 521.301 731.606 521.301H731.506C731.206 521.201 731.106 520.801 731.106 520.501C731.106 520.101 731.206 519.701 731.306 519.501C731.506 518.801 731.806 517.801 732.306 516.801C732.906 515.401 734.106 513.501 735.006 512.201C735.106 511.701 735.406 510.901 735.506 510.401C735.606 510.201 736.106 508.001 736.106 507.501C736.106 507.401 736.106 507.401 736.106 507.401C735.706 507.401 732.706 511.201 731.706 511.501C731.506 511.501 731.406 511.601 731.206 511.601C730.806 511.601 730.506 511.401 730.506 511.101C730.506 510.901 730.406 510.801 730.406 510.601C730.406 509.501 731.006 508.101 731.206 507.101C731.206 506.901 731.406 506.801 731.506 506.801C731.806 506.801 732.206 507.101 732.206 507.301V507.401C732.006 508.301 731.506 509.401 731.506 510.401C731.506 510.501 731.506 510.601 731.506 510.701C731.506 510.901 731.606 511.001 731.706 511.001C732.806 510.801 735.106 507.001 736.206 507.001C736.706 506.801 736.806 507.201 736.806 507.701ZM734.506 513.501C734.006 514.401 733.206 516.001 732.906 516.901C732.506 517.901 732.106 518.801 731.906 519.601C731.806 520.101 731.706 520.501 731.706 520.701C731.906 520.501 732.706 519.201 733.306 517.501C733.706 516.501 734.206 514.701 734.506 513.501Z" fill="white"/>
<path d="M743.205 507.7C743.205 508.7 741.605 509.4 741.205 509.5C741.205 509.6 741.205 509.7 741.205 509.7C741.205 510 741.205 510.3 741.405 510.5C741.605 510.7 741.805 510.8 742.205 510.8C743.905 510.8 747.205 508.3 747.205 508.3H747.305C747.505 508.3 747.605 508.4 747.605 508.6C747.605 508.7 747.605 508.7 747.505 508.8C747.505 508.8 744.305 511.1 742.305 511.1C741.805 511.1 741.405 510.9 741.105 510.5C740.905 510.2 740.805 509.8 740.805 509.5C740.805 508.8 741.105 508.2 741.505 507.7C741.705 507.4 742.005 507.3 742.205 507.1C742.405 507 742.505 507 742.705 507C742.805 507 742.905 507 742.905 507C743.105 507.1 743.205 507.2 743.205 507.5C743.105 507.6 743.205 507.7 743.205 507.7ZM742.405 507.7C742.105 507.7 741.905 508.1 741.305 508.9C742.105 508.2 742.405 507.8 742.405 507.7Z" fill="white"/>
<path d="M753.206 500.501C753.806 499.501 754.206 499.301 754.506 499.301C754.706 499.301 754.906 499.501 754.906 499.701C754.906 499.701 754.906 499.701 754.906 499.801V499.901C754.906 502.401 750.606 508.201 750.606 508.201L749.706 510.601C748.906 512.701 748.506 515.301 748.506 516.501C748.506 516.601 748.506 516.801 748.506 516.801C748.606 517.701 749.206 518.001 749.406 518.001C749.506 518.001 749.706 518.101 749.706 518.301C749.706 518.401 749.706 518.401 749.606 518.501H749.506C749.306 518.501 749.006 518.201 749.006 518.201C748.506 517.601 748.306 516.501 748.306 516.501C748.306 516.401 748.306 516.201 748.306 516.101C748.306 513.701 749.406 510.001 749.906 509.001C749.906 509.001 748.206 511.001 747.406 511.401C747.306 511.501 747.106 511.501 747.006 511.501C746.606 511.501 746.406 511.101 746.406 510.601C746.406 510.401 746.406 510.101 746.506 509.901C746.806 508.701 747.606 507.401 748.706 507.101C748.906 507.101 749.006 507.001 749.106 507.001C749.906 507.001 750.206 507.701 750.206 507.701C751.206 504.901 752.006 502.501 753.206 500.501ZM749.406 507.501H749.306C748.806 507.601 748.006 508.301 747.506 509.201C747.206 509.601 747.006 510.301 747.006 510.701C747.006 510.901 747.006 511.001 747.206 511.001C747.306 511.001 747.606 510.801 748.006 510.301C749.506 508.601 749.906 508.101 749.906 508.101C749.906 508.101 749.806 507.501 749.406 507.501ZM753.906 501.101C754.106 500.701 754.306 500.101 754.306 499.901C754.306 499.801 754.306 499.801 754.206 499.801C753.906 499.801 753.306 500.901 753.306 500.901C752.306 502.501 751.106 506.401 751.106 506.401C752.206 504.601 753.706 501.601 753.906 501.101Z" fill="white"/>
<path d="M492.398 287V391.2" stroke="url(#paint1_linear_1654_1521)" stroke-width="0.5" stroke-miterlimit="10"/>
<path d="M645.9 47.9004C645.2 47.9004 644.5 47.8004 643.8 47.5004C642.5 47.0004 642 46.1004 642.4 44.8004C642.6 43.9004 643 43.2004 643.5 42.4004C644.7 40.7004 646.1 39.1004 647.6 37.7004C648.8 36.5004 650.1 35.4004 651.4 34.2004C651.5 34.1004 651.5 34.1004 651.6 34.0004C651.3 33.5004 651 32.9004 650.6 32.4004C652.6 32.4004 654.7 32.4004 656.7 32.4004C655.9 34.5004 655.2 36.6004 654.4 38.8004C654 38.2004 653.7 37.6004 653.3 37.0004H653.2C651 38.5004 648.9 40.0004 647 41.8004C646.2 42.5004 645.5 43.3004 644.8 44.2004C644.5 44.7004 644.2 45.2004 644 45.8004C643.9 46.5004 644.1 47.0004 644.7 47.3004C645.1 47.7004 645.5 47.8004 645.9 47.9004Z" fill="#100B4A"/>
<path d="M669.598 44.5996C670.298 44.7996 670.898 44.8996 671.498 45.2996C672.398 45.7996 672.698 46.5996 672.298 47.5996C671.898 48.4996 671.298 49.1996 670.698 49.8996C669.198 51.3996 667.498 52.5996 665.798 53.7996C664.898 54.3996 664.098 54.8996 663.198 55.4996C663.098 55.4996 663.098 55.5996 662.998 55.5996C663.198 56.0996 663.398 56.5996 663.598 57.0996C661.798 56.7996 660.098 56.4996 658.398 56.1996C659.298 54.4996 660.298 52.7996 661.198 51.0996C661.398 51.6996 661.698 52.2996 661.898 52.7996C662.498 52.4996 663.098 52.1996 663.598 51.9996C665.398 51.0996 667.198 50.1996 668.798 48.9996C669.298 48.5996 669.798 48.0996 670.298 47.5996C670.498 47.3996 670.698 47.0996 670.798 46.7996C671.098 46.0996 670.998 45.5996 670.398 45.0996C670.098 44.8996 669.898 44.7996 669.598 44.5996Z" fill="#100B4A"/>
<path d="M664.5 40.2988C664.5 42.4988 664.5 44.5988 664.5 46.6988C664.2 45.4988 663.9 44.2988 663.6 42.9988C660.8 45.4988 657.5 46.8988 653.9 47.6988C655.4 52.0988 656.3 56.6988 655.6 61.3988C655.4 56.1988 654.3 51.1988 652 46.4988C656.8 45.7988 661 43.8988 664.5 40.2988Z" fill="#635BFD"/>
<path d="M660.602 39.0996C660.702 39.7996 660.702 40.2996 660.802 40.8996C660.802 41.0996 660.702 41.1996 660.602 41.2996C659.202 42.4996 657.502 43.3996 655.702 43.9996C653.702 44.6996 651.702 45.0996 649.702 45.3996H649.602C651.502 48.6996 653.102 52.0996 653.702 55.7996C652.302 51.4996 650.202 47.5996 647.102 44.1996C647.602 44.1996 648.002 44.0996 648.402 44.0996C652.102 43.6996 655.602 42.7996 658.702 40.6996C659.302 40.2996 659.902 39.7996 660.502 39.2996C660.502 39.2996 660.502 39.1996 660.602 39.0996Z" fill="#635BFD"/>
<path d="M677.898 40.3992C677.898 39.8992 678.098 39.4992 678.398 39.1992C678.698 38.8992 679.098 38.6992 679.598 38.6992H689.898V41.4992H681.298V45.0992H687.798V46.1992C687.798 46.6992 687.598 47.0992 687.298 47.3992C686.998 47.6992 686.498 47.8992 686.098 47.8992H681.398V55.1992H678.098V40.3992H677.898Z" fill="#635BFD"/>
<path d="M702.798 50.1004C702.798 52.3004 702.198 53.8004 701.098 54.5004C699.998 55.2004 698.698 55.5004 697.298 55.5004C695.998 55.5004 694.798 55.1004 693.598 54.4004C692.498 53.7004 691.898 52.3004 691.898 50.1004V42.4004H695.098V50.8004C695.098 52.2004 695.798 52.9004 697.298 52.9004C698.798 52.9004 699.498 52.2004 699.498 50.8004V44.0004C699.498 42.9004 699.998 42.4004 701.098 42.4004H702.798V50.1004Z" fill="#635BFD"/>
<path d="M714.097 55.1992C712.997 55.0992 712.497 54.5992 712.497 53.5992V46.9992C712.397 45.6992 711.697 44.9992 710.297 44.9992C708.897 44.9992 708.097 45.6992 708.097 46.9992V55.1992H704.797V47.6992C704.797 43.9992 706.597 42.1992 710.297 42.1992C713.997 42.1992 715.797 43.9992 715.797 47.6992V55.1992H714.097Z" fill="#635BFD"/>
<path d="M728.095 38.6996C728.495 38.6996 728.895 38.8996 729.195 39.1996C729.495 39.4996 729.695 39.8996 729.695 40.2996V41.9996V49.5996C729.695 53.4996 727.695 55.3996 723.695 55.2996C719.695 55.1996 717.695 53.0996 717.695 48.7996C717.695 44.3996 719.395 42.1996 722.795 42.0996C724.395 42.0996 725.595 42.7996 726.495 44.0996V38.5996H728.095V38.6996ZM723.795 44.9996C722.095 44.9996 721.095 46.1996 720.995 48.6996C720.995 51.2996 721.895 52.5996 723.695 52.5996C725.495 52.5996 726.495 51.2996 726.495 48.6996C726.395 46.2996 725.495 44.9996 723.795 44.9996Z" fill="#635BFD"/>
<path d="M743.095 51.1996C742.695 52.6996 742.095 53.6996 741.195 54.3996C740.195 55.0996 738.895 55.3996 737.495 55.3996C733.595 55.2996 731.695 52.9996 731.695 48.6996C731.695 44.3996 733.695 42.0996 737.595 42.0996C741.695 42.0996 743.595 44.5996 743.295 49.5996H734.995C735.095 51.5996 735.995 52.4996 737.595 52.4996C738.395 52.4996 739.095 52.1996 739.695 51.5996C739.995 51.2996 740.295 51.0996 740.795 51.0996H743.095V51.1996ZM739.895 47.2996C739.695 45.5996 738.895 44.6996 737.495 44.6996C736.095 44.6996 735.295 45.5996 734.995 47.2996H739.895Z" fill="#635BFD"/>
<path d="M755.697 38.6996C756.097 38.6996 756.497 38.8996 756.797 39.1996C757.097 39.4996 757.297 39.8996 757.297 40.2996V41.9996V49.5996C757.297 53.4996 755.297 55.3996 751.297 55.2996C747.297 55.1996 745.297 53.0996 745.297 48.7996C745.297 44.3996 746.997 42.1996 750.397 42.0996C751.997 42.0996 753.197 42.7996 754.097 44.0996V38.5996H755.697V38.6996ZM751.397 44.9996C749.697 44.9996 748.697 46.1996 748.597 48.6996C748.597 51.2996 749.497 52.5996 751.297 52.5996C753.097 52.5996 754.097 51.2996 754.097 48.6996C753.997 46.2996 753.097 44.9996 751.397 44.9996Z" fill="#635BFD"/>
<path d="M759.5 40.4012C759.5 39.9012 759.7 39.5012 760 39.2012C760.3 38.9012 760.7 38.7012 761.2 38.7012H763L769.7 50.0012V38.7012H773V55.2012H769.5L762.8 43.9012V55.2012H759.5V40.4012Z" fill="#100B4A"/>
<path d="M786.798 51.2016C786.398 52.7016 785.798 53.7016 784.898 54.4016C783.898 55.1016 782.598 55.4016 781.198 55.4016C777.298 55.3016 775.398 53.0016 775.398 48.7016C775.398 44.4016 777.398 42.1016 781.298 42.1016C785.398 42.1016 787.298 44.6016 786.998 49.6016H778.698C778.798 51.6016 779.698 52.5016 781.298 52.5016C782.098 52.5016 782.798 52.2016 783.398 51.6016C783.698 51.3016 783.998 51.1016 784.498 51.1016H786.798V51.2016ZM783.598 47.3016C783.398 45.6016 782.598 44.7016 781.198 44.7016C779.798 44.7016 778.998 45.6016 778.698 47.3016H783.598Z" fill="#100B4A"/>
<path d="M795.5 55.2016L793.2 51.1016L790.9 55.2016H787L791.2 48.6016L787.3 42.3016H791L793.2 46.2016L795.7 42.0016C796 41.4016 796.5 41.1016 797.1 41.1016H800L795.2 48.6016L799.5 55.2016H795.5Z" fill="#100B4A"/>
<path d="M802.902 55.0012C801.702 54.9012 801.102 54.1012 801.102 52.7012V38.7012H802.802C803.202 38.7012 803.602 38.9012 803.902 39.2012C804.202 39.5012 804.402 39.9012 804.402 40.3012V42.3012H806.302V43.0012C806.302 43.5012 806.102 43.9012 805.802 44.2012C805.502 44.5012 805.102 44.7012 804.702 44.7012H804.402V51.8012C804.402 52.3012 804.702 52.6012 805.302 52.6012H806.302V55.0012C805.202 55.1012 804.102 55.1012 802.902 55.0012Z" fill="#100B4A"/>
<path d="M344 105.101V85.8008H350.1C351.3 85.8008 352.2 86.0008 352.9 86.5008C353.6 86.9008 354.2 87.6008 354.5 88.4008C354.9 89.2008 355 90.2008 355 91.4008C355 92.8008 354.8 93.9008 354.3 94.6008C353.8 95.4008 353.2 95.9008 352.4 96.3008C351.6 96.6008 350.7 96.8008 349.6 96.8008H348V105.201H344V105.101ZM348 94.0008H349.4C350 94.0008 350.4 93.9008 350.7 93.7008C351 93.5008 351.2 93.2008 351.3 92.8008C351.4 92.4008 351.5 91.9008 351.5 91.3008C351.5 90.7008 351.5 90.2008 351.4 89.8008C351.3 89.4008 351.1 89.1008 350.8 88.9008C350.5 88.7008 350 88.6008 349.4 88.6008H348V94.0008Z" fill="#635BFD"/>
<path d="M357.102 105.101V85.8008H362.102C363.402 85.8008 364.502 85.9008 365.502 86.2008C366.402 86.5008 367.102 87.0008 367.602 87.8008C368.102 88.5008 368.402 89.6008 368.402 90.9008C368.402 91.7008 368.302 92.4008 368.202 93.0008C368.102 93.6008 367.802 94.1008 367.502 94.6008C367.202 95.1008 366.702 95.4008 366.102 95.7008L368.802 105.101H364.802L362.602 96.3008H361.002V105.101H357.102ZM361.002 94.0008H362.102C362.702 94.0008 363.202 93.9008 363.602 93.7008C364.002 93.5008 364.202 93.2008 364.402 92.8008C364.602 92.4008 364.602 91.9008 364.602 91.2008C364.602 90.3008 364.402 89.6008 364.102 89.2008C363.802 88.7008 363.202 88.5008 362.302 88.5008H361.002V94.0008Z" fill="#635BFD"/>
<path d="M376.2 105.4C374.8 105.4 373.7 105.1 372.8 104.6C371.9 104.1 371.4 103.4 371 102.4C370.6 101.5 370.5 100.3 370.5 98.9996V91.7996C370.5 90.4996 370.7 89.2996 371 88.3996C371.4 87.4996 372 86.6996 372.8 86.2996C373.6 85.7996 374.8 85.5996 376.2 85.5996C377.6 85.5996 378.8 85.8996 379.6 86.3996C380.4 86.8996 381 87.5996 381.4 88.4996C381.8 89.3996 381.9 90.5996 381.9 91.8996V98.9996C381.9 100.3 381.7 101.5 381.4 102.4C381 103.3 380.4 104.1 379.6 104.6C378.8 105.1 377.7 105.4 376.2 105.4ZM376.2 102.5C376.7 102.5 377.1 102.4 377.3 102.2C377.5 102 377.7 101.7 377.8 101.3C377.9 100.9 377.9 100.5 377.9 99.9996V90.8996C377.9 90.4996 377.9 89.9996 377.8 89.6996C377.7 89.2996 377.6 88.9996 377.3 88.7996C377.1 88.5996 376.7 88.4996 376.2 88.4996C375.7 88.4996 375.4 88.5996 375.1 88.7996C374.9 88.9996 374.7 89.2996 374.6 89.6996C374.5 90.0996 374.5 90.4996 374.5 90.8996V99.9996C374.5 100.4 374.5 100.9 374.6 101.3C374.7 101.7 374.8 102 375.1 102.2C375.4 102.4 375.7 102.5 376.2 102.5Z" fill="#635BFD"/>
<path d="M384.602 105.101V85.8008H392.802V88.5008H388.602V93.7008H392.202V96.4008H388.602V105.101H384.602Z" fill="#635BFD"/>
<path d="M394.703 105.101V85.8008H398.603V105.101H394.703Z" fill="#635BFD"/>
<path d="M403.398 105.101V88.7008H400.398V85.8008H410.298V88.7008H407.398V105.101H403.398Z" fill="#635BFD"/>
<path d="M423 105.4C421.8 105.4 420.8 105.2 420 104.7C419.2 104.3 418.6 103.6 418.2 102.7C417.8 101.8 417.6 100.7 417.5 99.3004L420.9 98.7004C420.9 99.5004 421 100.2 421.2 100.7C421.3 101.2 421.5 101.6 421.8 101.9C422.1 102.2 422.4 102.3 422.8 102.3C423.3 102.3 423.7 102.1 423.8 101.8C424 101.5 424.1 101.1 424.1 100.7C424.1 99.9004 423.9 99.2004 423.5 98.7004C423.1 98.2004 422.6 97.6004 422 97.0004L420 95.3004C419.3 94.7004 418.7 94.0004 418.2 93.2004C417.7 92.4004 417.5 91.5004 417.5 90.4004C417.5 88.8004 418 87.6004 418.9 86.7004C419.8 85.8004 421.1 85.4004 422.7 85.4004C423.7 85.4004 424.5 85.6004 425.1 85.9004C425.7 86.2004 426.2 86.6004 426.5 87.2004C426.8 87.7004 427.1 88.3004 427.2 88.9004C427.3 89.5004 427.4 90.2004 427.5 90.8004L424.1 91.3004C424.1 90.7004 424 90.2004 423.9 89.7004C423.8 89.3004 423.7 88.9004 423.5 88.6004C423.3 88.3004 423 88.2004 422.5 88.2004C422 88.2004 421.7 88.4004 421.5 88.7004C421.3 89.0004 421.2 89.4004 421.2 89.8004C421.2 90.5004 421.4 91.0004 421.7 91.5004C422 91.9004 422.4 92.4004 423 92.9004L425 94.6004C425.8 95.3004 426.5 96.1004 427.1 97.0004C427.7 97.9004 428 99.0004 428 100.3C428 101.2 427.8 102 427.4 102.8C427 103.5 426.4 104.1 425.7 104.5C424.9 105.2 424 105.4 423 105.4Z" fill="#635BFD"/>
<path d="M429.797 105.101V85.8008H435.897C437.097 85.8008 437.997 86.0008 438.697 86.5008C439.397 86.9008 439.997 87.6008 440.297 88.4008C440.697 89.2008 440.797 90.2008 440.797 91.4008C440.797 92.8008 440.597 93.9008 440.097 94.6008C439.597 95.4008 438.997 95.9008 438.197 96.3008C437.397 96.6008 436.497 96.8008 435.397 96.8008H433.597V105.201H429.797V105.101ZM433.697 94.0008H435.097C435.697 94.0008 436.097 93.9008 436.397 93.7008C436.697 93.5008 436.897 93.2008 436.997 92.8008C437.097 92.4008 437.197 91.9008 437.197 91.3008C437.197 90.7008 437.197 90.2008 437.097 89.8008C436.997 89.4008 436.797 89.1008 436.497 88.9008C436.197 88.7008 435.697 88.6008 435.097 88.6008H433.697V94.0008Z" fill="#635BFD"/>
<path d="M442.797 105.101V85.8008H446.697V102.501H451.197V105.201H442.797V105.101Z" fill="#635BFD"/>
<path d="M453 105.101V85.8008H456.9V105.101H453Z" fill="#635BFD"/>
<path d="M461.703 105.101V88.7008H458.703V85.8008H468.603V88.7008H465.703V105.101H461.703Z" fill="#635BFD"/>
<path d="M481.7 105.4C480.3 105.4 479.2 105.1 478.3 104.6C477.5 104.1 476.9 103.4 476.5 102.4C476.1 101.5 476 100.3 476 98.9996V91.7996C476 90.4996 476.2 89.2996 476.5 88.3996C476.9 87.4996 477.5 86.6996 478.3 86.2996C479.1 85.7996 480.3 85.5996 481.7 85.5996C483.1 85.5996 484.3 85.8996 485.1 86.3996C485.9 86.8996 486.5 87.5996 486.9 88.4996C487.3 89.3996 487.4 90.5996 487.4 91.8996V98.9996C487.4 100.3 487.2 101.5 486.9 102.4C486.5 103.3 485.9 104.1 485.1 104.6C484.3 105.1 483.2 105.4 481.7 105.4ZM481.7 102.5C482.2 102.5 482.6 102.4 482.8 102.2C483 102 483.2 101.7 483.3 101.3C483.4 100.9 483.4 100.5 483.4 99.9996V90.8996C483.4 90.4996 483.4 89.9996 483.3 89.6996C483.2 89.2996 483.1 88.9996 482.8 88.7996C482.6 88.5996 482.2 88.4996 481.7 88.4996C481.2 88.4996 480.9 88.5996 480.6 88.7996C480.4 88.9996 480.2 89.2996 480.1 89.6996C480 90.0996 480 90.4996 480 90.8996V99.9996C480 100.4 480 100.9 480.1 101.3C480.2 101.7 480.3 102 480.6 102.2C480.9 102.4 481.2 102.5 481.7 102.5Z" fill="#635BFD"/>
<path d="M490.102 105.101V85.8008H498.302V88.5008H494.002V93.7008H497.602V96.4008H494.002V105.101H490.102Z" fill="#635BFD"/>
<path d="M138.806 6.5V14.7H128.406L138.806 6.5Z" fill="#4343EF"/>
<path d="M6.20312 139.1H14.4031V129.1L6.20312 139.1Z" fill="#4343EF"/>
<path d="M90.9031 6.5L6.20312 91.2V139.1L138.803 6.5H90.9031Z" fill="#635BFD"/>
</g>
<defs>
<linearGradient id="paint0_linear_1654_1521" x1="103.289" y1="-138.23" x2="554.956" y2="787.69" gradientUnits="userSpaceOnUse">
<stop stop-color="#48484D"/>
<stop offset="0.2096" stop-color="#404045"/>
<stop offset="0.5336" stop-color="#2A2A2F"/>
<stop offset="0.9296" stop-color="#07070C"/>
<stop offset="1" stop-color="#000005"/>
</linearGradient>
<linearGradient id="paint1_linear_1654_1521" x1="-nan" y1="-nan" x2="-nan" y2="-nan" gradientUnits="userSpaceOnUse">
<stop stop-color="#48484D"/>
<stop offset="0.2096" stop-color="#404045"/>
<stop offset="0.5336" stop-color="#2A2A2F"/>
<stop offset="0.9296" stop-color="#07070C"/>
<stop offset="1" stop-color="#000005"/>
</linearGradient>
<clipPath id="clip0_1654_1521">
<rect width="841.9" height="595.3" fill="white"/>
</clipPath>
</defs>
</svg>
